<svg xmlns="http://www.w3.org/2000/svg" xmlns:xlink="http://www.w3.org/1999/xlink" width="137" height="137" viewBox="0 0 137 137"><defs><clipPath id="a"><rect width="117.431" height="113" fill="none"/></clipPath></defs><g transform="translate(-884 -910)"><g transform="translate(888.935 922)"><g transform="translate(0 0)" clip-path="url(#a)"><path d="M40.5,44.423l-.736-.471a1.025,1.025,0,0,0,.172-.573,1.288,1.288,0,0,0-.041-.311l.847-.215a2.2,2.2,0,0,1,.067.527,1.9,1.9,0,0,1-.308,1.044m-1.236-2.4a4.647,4.647,0,0,0-1.306-.957l-.221-.1c-.262-.122-.532-.253-.8-.387l.4-.78c.259.134.521.259.777.381l.224.1A5.509,5.509,0,0,1,39.9,41.421Zm-3.636-2.257a2.851,2.851,0,0,1-1.178-1.937,2.015,2.015,0,0,1-.017-.294,2.352,2.352,0,0,1,.14-.809l.82.3a1.507,1.507,0,0,0-.087.515,1.463,1.463,0,0,0,.012.189,1.984,1.984,0,0,0,.855,1.353Zm.5-3.692-.544-.681a8.13,8.13,0,0,1,2.764-1.315l.25.835a7.355,7.355,0,0,0-2.47,1.161m3.866-1.545-.241-.838c.925-.265,1.844-.564,2.738-.89l.3.82c-.911.332-1.85.637-2.793.908m4.169-1.437-.332-.812c.884-.358,1.766-.753,2.627-1.178l.384.783c-.876.433-1.777.841-2.679,1.207m4.018-1.935-.506-.71a1.911,1.911,0,0,0,.876-1.19.328.328,0,0,0-.131-.268.481.481,0,0,0-.128-.081l.337-.8a1.243,1.243,0,0,1,.372.233,1.2,1.2,0,0,1,.422.919,2.666,2.666,0,0,1-1.242,1.9M33.111,30.9a7.685,7.685,0,0,1-1.914-.236l.221-.844a6.756,6.756,0,0,0,1.7.207c.32-.02.689-.02,1.027-.064l.108.867c-.375.047-.794.038-1.137.07m2.618-.355L35.52,29.7c.765-.189,1.533-.445,2.281-.689l.471-.154.268.829-.465.151c-.762.253-1.548.512-2.345.71m-5.984-.474A4.637,4.637,0,0,1,28.57,29.1a4.693,4.693,0,0,1-.855-1.431l.815-.311a3.783,3.783,0,0,0,1.655,1.955Zm10.167-.806-.236-.841c.335-.1.672-.177,1.012-.25a15.692,15.692,0,0,1,1.929-.276l.073.87a15.143,15.143,0,0,0-1.821.262c-.323.067-.64.145-.957.236m7.081-.495c-.852-.041-1.7-.076-2.56-.076l-.32,0-.015-.873c.148,0,.308,0,.457,0,.826,0,1.655.032,2.482.073ZM9.681,27.931l-.849-.2a8.2,8.2,0,0,0,.212-1.949c0-.271-.012-.544-.029-.815l.873-.052c.017.291.029.579.029.867a9.139,9.139,0,0,1-.236,2.153m17.693-1.792c-.017-.2-.026-.393-.026-.593a9.341,9.341,0,0,1,.352-2.435l.841.227a8.522,8.522,0,0,0-.32,2.208c0,.175.006.346.02.521ZM8.89,23.539l-.055-.468c-.038-.343-.079-.689-.113-1.03-.047-.471-.081-.954-.093-1.437l.873-.02c.009.46.044.919.09,1.37.032.34.073.678.111,1.018l.052.471Zm10.848-1.4-.029-.87a8.437,8.437,0,0,0,2.138-.454l.567-.183.265.832-.567.183a9.227,9.227,0,0,1-2.374.492m9.251-.137-.809-.323c.081-.207.169-.407.259-.605a1.7,1.7,0,0,0,.2-.62c-.02-.157-.055-.384-.561-.454l.119-.864a1.366,1.366,0,0,1,1.3,1.108,1.165,1.165,0,0,1,.015.209,2.361,2.361,0,0,1-.279.983c-.087.186-.166.375-.244.564m-10.877-.172c-.093-.047-.186-.1-.279-.154a3.927,3.927,0,0,1-1.562-2.418l.838-.241a3.171,3.171,0,0,0,1.19,1.92,2.291,2.291,0,0,0,.2.113Zm5.955-.8L23.8,20.2l2.772-.879.262.832ZM9.547,19.187,8.68,19.1a6.61,6.61,0,0,1,.957-2.932l.736.471a5.737,5.737,0,0,0-.826,2.551m6.368-1.353a4.5,4.5,0,0,0-1.1-2.287l.518-.7.081.073a5.17,5.17,0,0,1,1.35,2.706ZM11.258,15.7l-.515-.7a4.288,4.288,0,0,1,3.055-.835l-.122.864a3.463,3.463,0,0,0-2.418.675" transform="translate(16.472 26.972)" fill="#0085cb"/><path d="M69.221,41.569l-1.489-.215.125-.864,1.489.218Zm-2.889-1.19a9.825,9.825,0,0,0-.911-2.621l.759-.428a10.644,10.644,0,0,1,1,2.857Zm-1.711-3.651a2.785,2.785,0,0,0-.89-.538,4.7,4.7,0,0,0-1.527-.218l.015-.873a5.456,5.456,0,0,1,1.815.273,3.726,3.726,0,0,1,1.167.7Zm-13.213-.739h-.532l.1-.524a17.033,17.033,0,0,0,.294-2.211l.873.058c-.041.6-.113,1.207-.212,1.8h.09l.006.873Zm2.074,0v-.873l2.909-.006v.873Zm4.364-.009V35.1l2.909,0v.873Zm-6.534-4.143a16.888,16.888,0,0,0-.137-1.914l-.009,0L51,29.065l.9-.189.073.454a17.866,17.866,0,0,1,.212,2.49Zm-4.224-1.527-.352,0,.012-.873.34,0a20.564,20.564,0,0,0,2.5-.151l.1.867a21.7,21.7,0,0,1-2.61.157m-1.836-.076a22.579,22.579,0,0,1-2.932-.448l.192-.852a21.149,21.149,0,0,0,2.816.431Zm-4.37-.82c-.343-.1-.687-.215-1.027-.335l-.762-.271L41.215,27.2l.529.7-.815.62.2.061Zm2.019-2.4-.527-.7,2.316-1.757.529.7Zm-11.04-.748a7.617,7.617,0,0,1-1.047-.087l.122-.864a3.326,3.326,0,0,0,1.961-.151,1.757,1.757,0,0,0,.381-.308l.631.6a2.442,2.442,0,0,1-.576.46,2.864,2.864,0,0,1-1.472.349m-2.493-.305c-1.123-.18-2.042-.355-2.889-.55l.195-.849c.829.189,1.728.361,2.831.538Zm-4.32-.919a17.862,17.862,0,0,1-2.79-1.036l.375-.788a17.139,17.139,0,0,0,2.656.986Zm19.814-.561A25.24,25.24,0,0,0,42.306,23.2l.335-.806a26.1,26.1,0,0,1,2.647,1.321Zm-10.045-.221-.7-.527.14-.183a5.218,5.218,0,0,1,2.4-1.623l.282.826a4.3,4.3,0,0,0-2,1.341Zm-13.877-.972a10.552,10.552,0,0,1-2.316-1.943l.652-.576a9.719,9.719,0,0,0,2.127,1.78Zm20.041-.547a8.965,8.965,0,0,0-.96-.212,6.725,6.725,0,0,0-1.757-.055l-.087-.87a7.425,7.425,0,0,1,1.981.064,9.79,9.79,0,0,1,1.059.233ZM28.138,20.3c-.166,0-.335-.009-.5-.015-.812-.035-1.635-.108-2.447-.212l.111-.867c.788.1,1.588.175,2.374.207.16.006.317.012.477.015Zm1.51-.064-.1-.864a4.955,4.955,0,0,0,2.493-.884l.524.7a5.746,5.746,0,0,1-2.918,1.05m-11.93-.183a2.146,2.146,0,0,1-.209-.879,1.327,1.327,0,0,1,.314-.879,1.719,1.719,0,0,1,1.868-.4l-.2.849c-.608-.143-.908,0-1,.108a.479.479,0,0,0-.108.32,1.288,1.288,0,0,0,.134.518Zm6.013-.207a28.357,28.357,0,0,1-2.871-.681l.244-.838a28.221,28.221,0,0,0,2.784.66Zm9.888-1.914-.777-.4a2.849,2.849,0,0,0,.335-1.306,1.873,1.873,0,0,0-.282-1.036l.736-.471a2.771,2.771,0,0,1,.419,1.51,3.734,3.734,0,0,1-.431,1.708M31.966,14.45a9.306,9.306,0,0,0-1.126-.387,6.26,6.26,0,0,1-1.655-.663l.483-.73a5.413,5.413,0,0,0,1.42.556,9.771,9.771,0,0,1,1.239.431ZM28.2,11.93a2.1,2.1,0,0,1-.02-.3,2.809,2.809,0,0,1,1.626-2.394l.119-.055.352.8-.093.041a1.972,1.972,0,0,0-1.132,1.609,1.239,1.239,0,0,0,.012.177Zm27.969-.759-2.9-.183.055-.873,2.9.183ZM51.818,10.9l-2.9-.18.055-.873,2.9.18Zm-4.355-.271-2.9-.183.055-.873,2.9.183Zm-4.355-.273-2.9-.18L40.26,9.3l2.9.18Zm-4.355-.271L35.85,9.9l.055-.873,2.9.183ZM34.4,9.809l-1.28-.079A11.739,11.739,0,0,0,31.55,9.7l-.058-.87a12.445,12.445,0,0,1,1.679.029l1.283.079Z" transform="translate(33.425 16.82)" fill="#0085cb"/><path d="M54.244,60.7a5.762,5.762,0,0,1-1.809-.294l-29.97-9.941a4.732,4.732,0,0,0-3.59.259L9.324,55.414a.729.729,0,1,1-.64-1.309l9.545-4.678a6.2,6.2,0,0,1,4.692-.34l29.97,9.941a4.292,4.292,0,0,0,2.511.061l1.431-.4A7.77,7.77,0,0,0,59.4,57.436L89.639,34.98a3.09,3.09,0,0,0,1.155-3.232L90.5,30.593a2.294,2.294,0,0,0-2.234-1.745,1.366,1.366,0,0,0-.719.207l-28.611,17.7a.741.741,0,0,1-.733.02L47.878,41.1a.728.728,0,0,1,.7-1.277l9.958,5.472L86.785,27.818a2.817,2.817,0,0,1,1.484-.425,3.749,3.749,0,0,1,3.645,2.845l.291,1.158a4.535,4.535,0,0,1-1.7,4.751L60.269,58.6a9.163,9.163,0,0,1-3.049,1.492l-1.428.393a5.614,5.614,0,0,1-1.548.215" transform="translate(15.8 52.296)" fill="#000001"/><path d="M46.652,41.108l-6.979-.244a.728.728,0,0,1-.7-.753.761.761,0,0,1,.753-.7l6.941.244,17.179-.294a2.427,2.427,0,0,0,2.377-2.22l.154-1.792a2.068,2.068,0,0,0-1.8-2.234L31.51,28.928a4.934,4.934,0,0,0-2.191.212L10.072,35.7A.728.728,0,1,1,9.6,34.324l19.25-6.56a6.478,6.478,0,0,1,2.839-.279l33.06,4.186a3.52,3.52,0,0,1,3.069,3.8l-.154,1.795a3.878,3.878,0,0,1-3.8,3.546Z" transform="translate(17.39 52.376)" fill="#000001"/><path d="M28.211,33.748a.727.727,0,0,1-.268-1.4l12.841-5.1a3.966,3.966,0,0,1,2.644-.012,4.66,4.66,0,0,1,3.119,4.4v.416a.727.727,0,1,1-1.455,0v-.416a3.208,3.208,0,0,0-2.144-3.026,2.5,2.5,0,0,0-1.652,0L28.479,33.7a.719.719,0,0,1-.268.052" transform="translate(52.471 51.576)" fill="#000001"/><path d="M41.967,60.126,12.494,20.044,32.614,6.726,62.086,46.808Zm-27.4-39.713,27.75,37.737L60.009,46.439,32.262,8.7Z" transform="translate(23.853 12.84)" fill="#000001"/><path d="M48.607,47.712,18.948,7.377l29.272-.87L77.876,46.839ZM21.764,8.747,49.328,46.234l25.734-.768L47.5,7.982Z" transform="translate(36.175 12.422)" fill="#000001"/><path d="M32.611,52.308,2.952,11.973l29.269-.87L61.88,51.438ZM5.765,13.346,33.329,50.83l25.737-.765L31.5,12.578Z" transform="translate(5.636 21.196)" fill="#000001"/><path d="M40.666,11.956,30.185,19.141l19.6,5.164Z" transform="translate(57.627 22.824)" fill="#fff"/><path d="M61.37,8.718,55.415,33.323a.672.672,0,0,1-.812.5L43.683,31.179A.673.673,0,0,1,44,29.87l10.266,2.484L59.68,9.977,31.773,26.911l8.361,2.022a.673.673,0,0,1-.317,1.309l-9.949-2.406a.674.674,0,0,1-.189-1.231L60.367,7.984a.673.673,0,0,1,1,.733" transform="translate(56.04 15.055)" fill="#1a1818"/><path d="M48.6,11.566l0,.015L45.8,23.13a.677.677,0,0,1-.815.5l-11.61-2.81a.673.673,0,0,1-.189-1.231L47.5,10.9a.672.672,0,0,1,1.094.666M44.649,22.158,46.9,12.837,35.279,19.892Z" transform="translate(62.739 20.495)" fill="#0085cb"/><path d="M34.33,14.8A.673.673,0,0,1,33.1,15l-.849-1.385a.673.673,0,1,1,1.146-.7l.849,1.382a.669.669,0,0,1,.081.512" transform="translate(61.384 24.034)" fill="#1a1818"/><path d="M36.8,13.3a.659.659,0,0,1-.3.416.672.672,0,0,1-.925-.221l-.849-1.385a.674.674,0,1,1,1.149-.7l.849,1.385a.672.672,0,0,1,.079.509" transform="translate(66.109 21.164)" fill="#1a1818"/><path d="M39.282,11.8a.673.673,0,0,1-1.228.195L37.2,10.61a.673.673,0,1,1,1.146-.7l.849,1.382a.669.669,0,0,1,.081.512" transform="translate(70.838 18.297)" fill="#1a1818"/><path d="M32.519.586s-6.694-1.679-9.8,9.673l3.346,8.277,8.515,14.269,8.093-16.454S47.836-.446,32.519.586" transform="translate(43.383 0.951)" fill="#f7f7f7"/><path d="M30.082,2.019a5.338,5.338,0,1,0,5.341,5.338,5.334,5.334,0,0,0-5.341-5.338m0,9.138a3.805,3.805,0,0,1-3.8-3.8H26.28a3.8,3.8,0,1,1,3.8,3.8" transform="translate(47.24 3.853)" fill="#0085cb"/><path d="M33.939,0A11.209,11.209,0,0,0,22.724,11.213c.038,3.261,2.691,8.719,5.312,13.6,2.63,4.838,5.245,8.94,5.248,8.949l.652,1.021.652-1.021c.006-.009,2.624-4.111,5.248-8.949,2.618-4.879,5.271-10.336,5.315-13.6A11.208,11.208,0,0,0,33.939,0m4.544,24.07c-1.809,3.325-3.616,6.3-4.547,7.82C33,30.375,31.2,27.4,29.4,24.071c-2.607-4.745-5.167-10.354-5.123-12.858a9.667,9.667,0,1,1,19.334,0c.038,2.5-2.528,8.114-5.126,12.858" transform="translate(43.383 0.001)" fill="#1a1818"/><path d="M7.5,17.862a.651.651,0,0,1-.4.323.67.67,0,0,1-.509-.038.657.657,0,0,1-.332-.4A.7.7,0,0,1,6.7,16.9a.683.683,0,0,1,.841.442.672.672,0,0,1-.044.518" transform="translate(11.902 32.212)" fill="#1a1818"/><path d="M36.129,18.083a.636.636,0,0,1-.125.169l-5.2,5.091a.69.69,0,0,1-.271.16L4.76,31.5A3.387,3.387,0,0,1,.536,29.289l-.378-1.2a3.35,3.35,0,0,1,2.205-4.21l13.187-4.1a.673.673,0,1,1,.4,1.286L2.761,25.17a2,2,0,0,0-1.318,2.516l.378,1.2a2.034,2.034,0,0,0,2.54,1.329l25.612-7.948,4.146-4.052-5.746-.989-6.5,2.022a.674.674,0,0,1-.4-1.286l6.659-2.071a.676.676,0,0,1,.314-.02l7.2,1.242a.672.672,0,0,1,.483.975" transform="translate(0 30.272)" fill="#1a1818"/><path d="M12.776,23.171a.684.684,0,0,1-.4.332.675.675,0,0,1-.844-.442l-2-6.327a.673.673,0,0,1,1.283-.407l2,6.33a.683.683,0,0,1-.047.515" transform="translate(18.148 30.272)" fill="#1a1818"/><path d="M4.913,25.611a.687.687,0,0,1-.393.332.678.678,0,0,1-.847-.439l-2-6.33a.673.673,0,0,1,1.283-.407l2,6.33a.683.683,0,0,1-.047.515" transform="translate(3.137 34.93)" fill="#1a1818"/><path d="M26.115,17.909a.664.664,0,0,1-.4.332L2.863,25.4a.674.674,0,1,1-.4-1.286l22.86-7.157a.673.673,0,0,1,.8.954" transform="translate(3.791 32.31)" fill="#1a1818"/></g></g><rect width="137" height="137" transform="translate(884 910)" fill="none"/></g></svg>