<svg xmlns="http://www.w3.org/2000/svg" xmlns:xlink="http://www.w3.org/1999/xlink" width="137" height="137" viewBox="0 0 137 137"><defs><clipPath id="a"><rect width="106.805" height="131.089" fill="none"/></clipPath></defs><g transform="translate(-1190 -910)"><g transform="translate(1200 913)"><rect width="3.021" height="41.655" transform="translate(39.166 1.247) rotate(-13.957)" fill="#f7f7f7"/><path d="M14.595,1.556l2.1-.519,9.842,39.6-2.1.522ZM17.319,0,13.56.935,23.815,42.189l3.754-.932Z" transform="translate(25.089 0.001)" fill="#000001"/><path d="M11,14.821,13.2,21.938,41.5,14.7l3.785-5.931L38.423,4.785Z" transform="translate(20.349 8.854)" fill="#f7f7f7"/><path d="M13.261,22.759l-2.448-7.9,28-10.244,7.419,4.312-4.119,6.453ZM11.87,15.388l1.964,6.342L41.57,14.639l3.454-5.415-6.3-3.663Z" transform="translate(20.007 8.549)" fill="#0085cb"/><path d="M11.7,8.229,8.379,15.434l6.51,2.676,27.3-10.355L39.9.667Z" transform="translate(15.503 1.235)" fill="#f7f7f7"/><path d="M9.326,15.546l3.05-6.621L40,1.52l2.038,6.316L15.266,17.988Zm2.634-7.394-.194.051L8.177,16l7.08,2.91L42.716,8.494l.382-.145L40.559.485Z" transform="translate(15.129 0.898)" fill="#0085cb"/><rect width="1.427" height="24.295" transform="translate(3.6 57.877) rotate(-40.795)" fill="#0085cb"/><rect width="1.426" height="24.296" transform="matrix(0.757, -0.653, 0.653, 0.757, 21.635, 42.313)" fill="#0085cb"/><g transform="translate(0 0)"><g clip-path="url(#a)"><path d="M15.751,54.3c-.086,0-.174,0-.259-.009a3.445,3.445,0,0,1-2.36-1.183L.836,38.862a3.46,3.46,0,0,1,.356-4.868L23.951,14.356a3.478,3.478,0,0,1,2.508-.829,3.442,3.442,0,0,1,2.357,1.186l12.3,14.251a3.45,3.45,0,0,1-.359,4.863L18,53.467a3.41,3.41,0,0,1-2.246.835M26.2,14.943a2.022,2.022,0,0,0-1.32.49L2.124,35.071a2.036,2.036,0,0,0-.211,2.856l12.3,14.248a1.988,1.988,0,0,0,1.382.7,2.064,2.064,0,0,0,1.474-.482L39.824,32.751a2.039,2.039,0,0,0,.211-2.859l-12.3-14.248a2,2,0,0,0-1.382-.7c-.051,0-.1-.006-.154-.006" transform="translate(-0.001 25.016)" fill="#000001"/><path d="M5.485,25.67l-3.52-4.079L9.8,14.83l3.517,4.079-1.08.932-2.588-3-5.672,4.9,2.588,3Z" transform="translate(3.636 27.441)" fill="#000001"/><path d="M8.367,44.239A34.018,34.018,0,1,0,42.385,10.218,34.018,34.018,0,0,0,8.367,44.239" transform="translate(15.481 18.907)" fill="#f7f7f7"/><path d="M42.847,79.431A34.732,34.732,0,1,1,77.58,44.7a34.769,34.769,0,0,1-34.733,34.73m0-68.038A33.307,33.307,0,1,0,76.155,44.7,33.344,33.344,0,0,0,42.847,11.393" transform="translate(15.018 18.444)" fill="#000001"/><path d="M31.556,71.536l-.829-1.2.673-.459.613-1.3.775.368ZM29.92,69.158,28.307,66.81l.707-.485,1.613,2.349ZM33.4,67.648l-.775-.365,1.22-2.577.775.365Zm-5.9-2.012-1.613-2.351.707-.482,1.616,2.349Zm7.724-1.853-.772-.365,1.22-2.574.772.362ZM8.78,62.5l1.479-3.178.772.362L9.9,62.127l-.217-.1.051.316Zm2.357-.379L11,61.277l2.819-.445.134.844Zm13.941-.011-1.511-2.2.188-.131-.08-.507.445-.068,1.665,2.42Zm-9.716-.656-.134-.844,2.816-.445.134.844Zm4.221-.667-.134-.844,2.819-.445.131.844Zm17.469-.869-.772-.365L37.5,56.979l.775.362ZM11.633,58.393l-.772-.362,1.2-2.585.775.362Zm27.248-2.337-.775-.365,1.22-2.577.772.365ZM13.437,54.517l-.775-.362,1.2-2.585.775.362Zm27.271-2.326-.772-.365,1.217-2.577.775.365Zm-25.47-1.553-.775-.362,1.2-2.582.775.362Zm27.3-2.312-.775-.365.094-.194.772.365Zm-25.5-1.562-.775-.362,1.2-2.585.772.362Zm1.8-3.879-.772-.362,1.2-2.582.772.359Zm1.8-3.876-.772-.359,1.2-2.585.772.359Zm1.8-3.876-.772-.362,1.2-2.585.775.362Z" transform="translate(16.245 59.551)" fill="#0085cb"/><path d="M33.274,72.364l-.527-1.317.79-.319.017.037L34.5,69.7l.638.567Zm-1.063-2.639-1.069-2.642.79-.319L33,69.405ZM36.09,69.2l-.638-.567L37.344,66.5l.638.567Zm2.842-3.2-.638-.567,1.9-2.129.638.567Zm-8.32-.242-1.069-2.642.79-.322L31.4,65.444ZM55.03,63.685l-1.16-.123.031-.325-.909-2.1.784-.339Zm-2.577-.276-2.836-.3.091-.849,2.833.3ZM48.2,62.952l-2.833-.3.088-.849,2.836.3Zm-6.427-.14-.638-.57.741-.829,2.16.231-.088.849-1.727-.185ZM29.007,61.8l-1.066-2.642.79-.319L29.8,61.479Zm23.418-1.97L51.29,57.212l.787-.339,1.132,2.617Zm-25.019-2-1.069-2.642.792-.319L28.2,57.514Zm23.321-1.927L49.595,53.29l.784-.339,1.134,2.617Zm-24.92-2.038-1.069-2.642.79-.319L26.6,53.549Zm23.218-1.887-1.132-2.614.784-.339,1.134,2.614ZM24.2,49.907l-1.066-2.642.792-.322,1.066,2.645ZM47.326,48.06l-1.134-2.617.787-.339,1.132,2.617ZM22.6,45.942,21.534,43.3l.79-.319,1.069,2.642Zm23.024-1.807L44.5,41.521l.784-.339L46.411,43.8ZM21,41.977l-1.069-2.642.792-.319,1.069,2.642Zm22.925-1.764L42.794,37.6l.784-.339,1.134,2.617Zm-1.7-3.922-1.134-2.617.787-.339,1.132,2.617Zm-1.7-3.922-.14-.319.787-.342.137.319Z" transform="translate(36.879 58.669)" fill="#0085cb"/><path d="M29.636,45.874c-.185,0-.373-.006-.564-.011l.034-.855a13.392,13.392,0,0,0,2.75-.168l.14.841a14.488,14.488,0,0,1-2.36.194m-2.029-.143a14.394,14.394,0,0,1-2.842-.707l.288-.8a13.517,13.517,0,0,0,2.676.664Zm5.823-.362-.225-.827a13.445,13.445,0,0,0,2.571-.995l.39.761a14.277,14.277,0,0,1-2.736,1.06m-10.019-.912a14.243,14.243,0,0,1-2.5-1.533l.519-.681a13.486,13.486,0,0,0,2.351,1.445Zm14.026-.881-.467-.718a13.89,13.89,0,0,0,2.152-1.724l.6.61a14.848,14.848,0,0,1-2.286,1.833m-17.643-1.6A14.494,14.494,0,0,1,17.87,39.76l.7-.493a13.223,13.223,0,0,0,1.807,2.084Zm20.921-1.311-.656-.547a13.712,13.712,0,0,0,1.533-2.289l.755.4a14.437,14.437,0,0,1-1.633,2.437M17.086,38.517a14.29,14.29,0,0,1-1.163-2.691l.812-.257a13.787,13.787,0,0,0,1.1,2.528ZM42.969,36.9l-.79-.322a13.428,13.428,0,0,0,.767-2.648l.841.154a14.171,14.171,0,0,1-.818,2.816M15.555,34.407a14.567,14.567,0,0,1-.125-5.182l.847.134a13.292,13.292,0,0,0-.165,2.129,13.818,13.818,0,0,0,.279,2.745Zm28.423-1.781-.852-.066c.029-.353.04-.71.04-1.069a13.9,13.9,0,0,0-.1-1.69l.847-.105a14.566,14.566,0,0,1,.111,1.8c0,.382-.017.761-.043,1.134m-1.16-4.184a13.528,13.528,0,0,0-.889-2.608l.772-.359a14.187,14.187,0,0,1,.952,2.776Zm-26.251-.433-.829-.217a13.922,13.922,0,0,1,1.04-2.742l.761.382a13.519,13.519,0,0,0-.972,2.577m24.72-3.4a13.42,13.42,0,0,0-1.639-2.217l.636-.576a14.428,14.428,0,0,1,1.739,2.36Zm-23.061-.376-.724-.462a14.5,14.5,0,0,1,1.818-2.3l.613.6a13.528,13.528,0,0,0-1.707,2.166m20.439-2.816A13.4,13.4,0,0,0,36.439,19.8l.43-.738a14.329,14.329,0,0,1,2.371,1.727Zm-17.72-.291-.553-.653a14.315,14.315,0,0,1,2.426-1.647l.4.75a13.713,13.713,0,0,0-2.277,1.551m14.271-1.964a13.431,13.431,0,0,0-2.617-.872l.188-.835a14.405,14.405,0,0,1,2.779.929Zm-10.745-.177-.328-.79a13.9,13.9,0,0,1,2.813-.838l.157.841a13.292,13.292,0,0,0-2.642.787m6.766-.929a13.74,13.74,0,0,0-2.759-.046l-.071-.849a14.009,14.009,0,0,1,2.93.046Z" transform="translate(28.227 31.654)" fill="#0085cb"/><path d="M10.845,39.654A26.956,26.956,0,1,0,37.8,12.7,26.957,26.957,0,0,0,10.845,39.654" transform="translate(20.066 23.492)" fill="#f7f7f7"/><path d="M38.262,67.784a27.669,27.669,0,1,1,27.67-27.667,27.7,27.7,0,0,1-27.67,27.667m0-53.912A26.244,26.244,0,1,0,64.507,40.116,26.272,26.272,0,0,0,38.262,13.871" transform="translate(19.603 23.029)" fill="#000001"/><line y2="4.694" transform="translate(57.865 40.238)" fill="#fff"/><rect width="1.425" height="4.694" transform="translate(57.153 40.24)" fill="#000001"/><line y2="4.697" transform="translate(57.865 80.994)" fill="#fff"/><rect width="1.425" height="4.697" transform="translate(57.153 80.993)" fill="#000001"/><line x2="11.88" y2="16.383" transform="translate(50.174 52.065)" fill="#fff"/><path d="M29.028,34.6,28.19,33.45l.69-.5.838,1.151Zm-1.34-1.844-.838-1.154.69-.5.838,1.154Zm-1.34-1.847-.838-1.154.693-.5.838,1.154Zm-1.337-1.847-.838-1.154.69-.5.838,1.154Zm-1.34-1.847-.835-1.152.69-.5.835,1.154Zm-1.34-1.847L21.5,24.221l.69-.5.835,1.154Zm-1.34-1.844-.832-1.154.69-.5.835,1.154Zm-1.337-1.847-.835-1.154.69-.5.835,1.154ZM18.32,19.837l-.838-1.154.69-.5.838,1.154Z" transform="translate(32.346 33.635)" fill="#0085cb"/><line x1="18.262" y2="20.413" transform="translate(54.041 47.386)" fill="#fff"/><path d="M19.5,37.5l-.653-.559.67.539Zm.579-.65-.636-.573.952-1.06.636.57Zm1.519-1.7-.636-.57.952-1.063.636.57Zm1.525-1.7-.638-.57.949-1.063.638.57Zm1.519-1.7L24,31.184l.949-1.063.638.57Zm1.519-1.7-.636-.57.952-1.063.636.57Zm1.519-1.7-.636-.57.952-1.063.636.573Zm1.525-1.7-.641-.57.949-1.063.641.57Zm1.519-1.7-.638-.57.949-1.063.638.57Zm1.519-1.7-.638-.573.949-1.06.638.57Zm1.519-1.7-.636-.57.952-1.06.636.57Zm1.519-1.7-.636-.57.952-1.063.636.573Zm1.525-1.7-.641-.57.949-1.063.641.57Z" transform="translate(34.868 30.576)" fill="#0085cb"/><line x2="4.694" transform="translate(35.141 62.964)" fill="#fff"/><rect width="4.694" height="1.425" transform="translate(35.144 62.252)" fill="#000001"/><line x2="4.694" transform="translate(75.896 62.964)" fill="#fff"/><rect width="4.694" height="1.425" transform="translate(75.896 62.252)" fill="#000001"/><path d="M0,0H33.522V21.788H0Z" transform="translate(70.241 77.841) rotate(-6.503)" fill="#f7f7f7"/><path d="M27,52.724,24.368,29.66,59.087,25.7l2.631,23.064Zm-1.052-21.81L28.25,51.145l31.891-3.634L57.833,27.28Z" transform="translate(45.087 47.554)" fill="#000001"/><path d="M26.878,36.184a7.077,7.077,0,1,0,6.231-7.832,7.077,7.077,0,0,0-6.231,7.832" transform="translate(49.646 52.374)" fill="#f7f7f7"/><path d="M34.18,43.164a7.615,7.615,0,0,1-1.251-.1l.145-.844a6.786,6.786,0,0,0,1.106.091l.225,0,.028.855Zm1.151-.088-.128-.847a6.566,6.566,0,0,0,1.291-.333l.3.8a7.578,7.578,0,0,1-1.459.379m-3.283-.222a7.614,7.614,0,0,1-1.4-.573l.4-.755a6.8,6.8,0,0,0,1.24.51Zm5.575-.522-.39-.761a6.744,6.744,0,0,0,1.12-.73l.533.667a7.567,7.567,0,0,1-1.263.824m-7.747-.53a7.634,7.634,0,0,1-1.137-.983l.616-.59a6.927,6.927,0,0,0,1.018.875Zm9.682-.9-.61-.6a7,7,0,0,0,.835-1.046l.718.465a7.765,7.765,0,0,1-.943,1.177m-11.4-.772a7.67,7.67,0,0,1-.772-1.3l.772-.362a7,7,0,0,0,.687,1.149Zm12.786-1.194-.77-.373a6.458,6.458,0,0,0,.456-1.251l.829.208a7.34,7.34,0,0,1-.516,1.417m-13.892-.949a7.53,7.53,0,0,1-.319-1.471,7.3,7.3,0,0,1-.051-.861c0-.12,0-.239.011-.359l.852.043c0,.105-.006.211-.006.316a6.914,6.914,0,0,0,.04.761,7.177,7.177,0,0,0,.285,1.311Zm14.579-1.357-.847-.111a6.43,6.43,0,0,0,.054-.847c0-.16,0-.322-.017-.487l.852-.066c.014.185.023.371.023.553a7.145,7.145,0,0,1-.066.958m-14-2.089-.841-.145a7.122,7.122,0,0,1,.4-1.456l.8.316a6.557,6.557,0,0,0-.359,1.285m13.083-.154a6.47,6.47,0,0,0-.388-1.277l.79-.331a7.546,7.546,0,0,1,.439,1.445Zm-12.39-1.864-.752-.4a7.294,7.294,0,0,1,.844-1.251l.658.544a6.7,6.7,0,0,0-.75,1.109m11.649-.137a6.806,6.806,0,0,0-.772-1.092l.644-.562a7.828,7.828,0,0,1,.875,1.231ZM29.625,30.825l-.59-.619a7.378,7.378,0,0,1,1.194-.923l.45.727a6.387,6.387,0,0,0-1.055.815m9.01-.1a6.634,6.634,0,0,0-1.077-.792l.436-.735a7.541,7.541,0,0,1,1.214.889Zm-7.245-1.1-.362-.772a7.209,7.209,0,0,1,1.425-.5l.2.832a6.515,6.515,0,0,0-1.26.436m5.453-.06a6.623,6.623,0,0,0-1.271-.41l.18-.835a7.407,7.407,0,0,1,1.437.462Zm-3.4-.513-.094-.849a7.876,7.876,0,0,1,.889-.046q.312,0,.616.026l-.071.852c-.194-.014-.39-.029-.581-.026a7.51,7.51,0,0,0-.758.043" transform="translate(49.366 52.098)" fill="#0085cb"/><path d="M28.2,33.256a3.242,3.242,0,1,0,2.853-3.583A3.238,3.238,0,0,0,28.2,33.256" transform="translate(52.136 54.866)" fill="#f7f7f7"/><path d="M31.965,37.543a4.085,4.085,0,1,1,.473-.026,4.425,4.425,0,0,1-.473.026m.009-6.481c-.088,0-.18.006-.271.014a2.385,2.385,0,0,0-1.214,4.238,2.417,2.417,0,0,0,1.756.5,2.389,2.389,0,0,0,2.1-2.639,2.392,2.392,0,0,0-2.371-2.118" transform="translate(51.578 54.309)" fill="#000001"/><path d="M36.836,32.861a3,3,0,0,1-.333-5.988,3,3,0,0,1,.678,5.971c-.117.011-.231.017-.345.017m.009-4.583a1.266,1.266,0,0,0-.18.011,1.581,1.581,0,0,0-1.394,1.747v0a1.579,1.579,0,0,0,.584,1.055,1.553,1.553,0,0,0,1.166.331,1.578,1.578,0,0,0-.177-3.147" transform="translate(62.609 49.685)" fill="#0085cb"/><path d="M40.425,27.823l-.379-3.312-7.291.832.376,3.312" transform="translate(60.605 45.352)" fill="#f7f7f7"/><path d="M32.93,29.006l-.037-.319.852-.1.037.322Zm7.294-.829-.162-1.414.852-.1.16,1.414ZM32.8,27.838l-.162-1.417.852-.1.162,1.417Zm.353-1.779-.094-.849,1.417-.16.094.849Zm6.815-.148-.12-1.043.054-.009-.046-.425.792-.088.171,1.468ZM35.416,25.8l-.094-.849,1.417-.16.094.849Zm2.266-.257-.094-.849L39,24.534l.094.847Z" transform="translate(60.381 45.047)" fill="#0085cb"/><path d="M30.957,21.124l-.744-.747L45.325,5.356l.744.747Z" transform="translate(55.901 9.911)" fill="#0085cb"/><path d="M45.931,33.693,38.3,21.269,25.917,13.556l28.52-8.331ZM52.869,6.781l-24.4,7.126,10.589,6.6L45.6,31.134Z" transform="translate(47.953 9.668)" fill="#000001"/></g></g></g><rect width="137" height="137" transform="translate(1190 910)" fill="none"/></g></svg>