<svg xmlns="http://www.w3.org/2000/svg" xmlns:xlink="http://www.w3.org/1999/xlink" width="95" height="76" viewBox="0 0 95 76"><defs><style>.a,.c,.d{fill:none;}.b{clip-path:url(#a);}.c{stroke:#2583c8;}.c,.d{stroke-miterlimit:10;}.d{stroke:#0c101b;stroke-linecap:square;}</style><clipPath id="a"><rect class="a" width="64.783" height="70.734"/></clipPath></defs><g transform="translate(-600 -223)"><g transform="translate(614.997 227)"><g class="b" transform="translate(0 0)"><path class="c" d="M63.412,34.947C60.435,48.107,47.57,58,32.154,58a34.792,34.792,0,0,1-12.416-2.266L5.444,67.948,9.571,49.522A27.475,27.475,0,0,1,.25,29.127C.25,13.18,14.533.25,32.154.25c12.495,0,23.309,6.5,28.543,15.967" transform="translate(0.569 0.568)"/><path class="c" d="M27.909,2.171l-1.9,10.071L15.854,9.511" transform="translate(36.07 4.94)"/><path class="d" d="M12.643,12.535h3.933A1.6,1.6,0,0,0,18.2,10.963v-.508" transform="translate(28.765 23.786)"/><path class="d" d="M7.161,8.681V24.238L15.827,26.1a3.615,3.615,0,0,0,.8.088l5.293,0H27A1.6,1.6,0,0,0,28.623,24.6v-.5" transform="translate(16.293 19.75)"/><path class="d" d="M23.163,21.283h4.4a1.6,1.6,0,0,0,1.621-1.575V18.054a1.6,1.6,0,0,0-1.621-1.575H17.887l1.1-4.769a5.3,5.3,0,0,0,.062-2.044l-.662-4.035A1.377,1.377,0,0,0,17.013,4.5H15.621a1.375,1.375,0,0,0-1.379,1.173L13.7,9.725l-1.212,2.951a4.777,4.777,0,0,1-2.129,2.365L8.281,16.184" transform="translate(18.841 10.233)"/><path class="d" d="M12.463,14H15.8a1.6,1.6,0,0,0,1.621-1.572v-.508" transform="translate(28.356 27.124)"/><path class="d" d="M5.121,8.016H11.8V27.228H5.121V11.367" transform="translate(11.651 18.237)"/><line class="d" y2="0.796" transform="translate(20.113 41.195)"/><line class="d" y1="0.983" transform="translate(34.8 10.302)"/><line class="d" x2="1.012" transform="translate(40.578 17.073)"/><line class="d" x2="1.012" transform="translate(28.49 17.073)"/><line class="d" x1="0.658" y1="0.747" transform="translate(29.95 12.565)"/><line class="d" y1="0.747" x2="0.658" transform="translate(38.99 12.565)"/></g></g><rect class="a" width="95" height="76" transform="translate(600 223)"/></g></svg>