<svg xmlns="http://www.w3.org/2000/svg" xmlns:xlink="http://www.w3.org/1999/xlink" width="137" height="137" viewBox="0 0 137 137"><defs><clipPath id="a"><rect width="133.626" height="131.089" fill="none"/></clipPath></defs><g transform="translate(-1190 -1209)"><g transform="translate(1192 1212)"><g transform="translate(0 0.001)" clip-path="url(#a)"><path d="M31.014,29.034a13.388,13.388,0,0,1-1.742-.117l.123-.891a12.03,12.03,0,0,0,2.882.039l.093.9c-.447.045-.9.069-1.356.072m4.376-.774-.309-.843A11.972,11.972,0,0,0,37.645,26.1l.5.744A12.684,12.684,0,0,1,35.39,28.26m-9.117-.138a12.586,12.586,0,0,1-2.717-1.5l.528-.729a11.984,11.984,0,0,0,2.522,1.395Zm14.21-3.311-.666-.6a11.875,11.875,0,0,0,1.653-2.36l.795.423a12.727,12.727,0,0,1-1.781,2.54m-19.2-.294a12.737,12.737,0,0,1-1.7-2.591l.8-.4a11.848,11.848,0,0,0,1.584,2.408Zm22.092-5.143-.873-.216a11.88,11.88,0,0,0,.348-2.861h.9a12.731,12.731,0,0,1-.375,3.077M18.562,19a12.868,12.868,0,0,1-.285-2.7c0-.129,0-.258.006-.39l.9.033c0,.117-.006.24-.006.357a11.871,11.871,0,0,0,.267,2.51Zm24.092-4.859a11.757,11.757,0,0,0-.867-2.747l.819-.375a12.529,12.529,0,0,1,.93,2.96Zm-23.039-1.05-.867-.243a12.854,12.854,0,0,1,1.2-2.861l.78.447a11.987,11.987,0,0,0-1.113,2.657M40.282,8.933a11.806,11.806,0,0,0-2.054-2.021l.552-.714a12.944,12.944,0,0,1,2.207,2.174Zm-17.83-.813L21.8,7.5a12.763,12.763,0,0,1,2.4-1.967l.48.762a11.911,11.911,0,0,0-2.228,1.826m13.3-2.675a11.861,11.861,0,0,0-2.762-.825l.15-.885a12.557,12.557,0,0,1,2.972.885Zm-8.464-.387L27,4.2A12.934,12.934,0,0,1,30.04,3.6l.069.9a11.749,11.749,0,0,0-2.825.567" transform="translate(36.538 7.185)" fill="#0085cb"/><path d="M39.625,46.966h-2.9a2.791,2.791,0,0,1-2.786-2.789,1.882,1.882,0,0,0-1.332-1.8,19.632,19.632,0,0,1-3.848-1.593,1.885,1.885,0,0,0-2.222.324,2.786,2.786,0,0,1-3.941,0l-2.048-2.051a2.78,2.78,0,0,1,0-3.941,1.889,1.889,0,0,0,.327-2.222,19.77,19.77,0,0,1-1.6-3.845,1.875,1.875,0,0,0-1.8-1.335,2.788,2.788,0,0,1-2.786-2.786v-2.9a2.791,2.791,0,0,1,2.786-2.789,1.873,1.873,0,0,0,1.8-1.332,19.688,19.688,0,0,1,1.6-3.848,1.885,1.885,0,0,0-.327-2.219,2.784,2.784,0,0,1,0-3.944L22.6,5.854a2.786,2.786,0,0,1,3.941,0,1.89,1.89,0,0,0,2.222.327,19.721,19.721,0,0,1,3.848-1.593,1.885,1.885,0,0,0,1.332-1.8A2.79,2.79,0,0,1,36.725,0h2.9a2.79,2.79,0,0,1,2.786,2.786,1.884,1.884,0,0,0,1.335,1.8A19.664,19.664,0,0,1,47.59,6.181a1.889,1.889,0,0,0,2.222-.327,2.783,2.783,0,0,1,3.941,0L55.8,7.9a2.788,2.788,0,0,1,0,3.941,1.886,1.886,0,0,0-.33,2.222,19.688,19.688,0,0,1,1.6,3.848,1.878,1.878,0,0,0,1.8,1.332,2.791,2.791,0,0,1,2.786,2.789v2.9a2.786,2.786,0,0,1-2.786,2.786,1.881,1.881,0,0,0-1.8,1.335,19.586,19.586,0,0,1-1.6,3.845,1.885,1.885,0,0,0,.33,2.222,2.791,2.791,0,0,1,0,3.941l-2.051,2.051a2.791,2.791,0,0,1-3.941,0,1.881,1.881,0,0,0-2.222-.327,19.759,19.759,0,0,1-3.845,1.593,1.881,1.881,0,0,0-1.335,1.8,2.791,2.791,0,0,1-2.786,2.789M27.877,39.66a2.746,2.746,0,0,1,1.311.333,18.823,18.823,0,0,0,3.674,1.521,2.785,2.785,0,0,1,1.976,2.663,1.889,1.889,0,0,0,1.886,1.889h2.9a1.889,1.889,0,0,0,1.886-1.889,2.784,2.784,0,0,1,1.979-2.663,18.689,18.689,0,0,0,3.671-1.521,2.789,2.789,0,0,1,3.287.48,1.889,1.889,0,0,0,2.669,0l2.051-2.051a1.892,1.892,0,0,0,0-2.669,2.794,2.794,0,0,1-.486-3.287A18.7,18.7,0,0,0,56.207,28.8a2.788,2.788,0,0,1,2.663-1.979,1.888,1.888,0,0,0,1.886-1.886v-2.9a1.889,1.889,0,0,0-1.886-1.889,2.785,2.785,0,0,1-2.663-1.976A18.7,18.7,0,0,0,54.683,14.5a2.793,2.793,0,0,1,.486-3.287,1.9,1.9,0,0,0,0-2.672L53.118,6.487a1.892,1.892,0,0,0-2.669,0,2.786,2.786,0,0,1-3.287.486,18.6,18.6,0,0,0-3.671-1.521,2.79,2.79,0,0,1-1.979-2.666A1.888,1.888,0,0,0,39.625.9h-2.9a1.888,1.888,0,0,0-1.886,1.886,2.791,2.791,0,0,1-1.976,2.666,18.578,18.578,0,0,0-3.674,1.521A2.791,2.791,0,0,1,25.9,6.49a1.892,1.892,0,0,0-2.669,0L21.183,8.538a1.883,1.883,0,0,0,0,2.669,2.794,2.794,0,0,1,.483,3.29,18.7,18.7,0,0,0-1.524,3.671,2.782,2.782,0,0,1-2.663,1.976,1.889,1.889,0,0,0-1.886,1.889v2.9a1.888,1.888,0,0,0,1.886,1.886A2.785,2.785,0,0,1,20.142,28.8a18.7,18.7,0,0,0,1.524,3.671,2.79,2.79,0,0,1-.483,3.287,1.883,1.883,0,0,0-.555,1.338,1.857,1.857,0,0,0,.555,1.332l2.048,2.051a1.892,1.892,0,0,0,2.669,0,2.806,2.806,0,0,1,1.976-.816" transform="translate(29.373 -0.002)" fill="#0085cb"/><path d="M86.065,50.076c0-21.834-17.491-39.534-39.064-39.534S7.938,28.243,7.938,50.076,25.429,89.611,47,89.611s39.064-17.7,39.064-39.534" transform="translate(15.869 21.073)" fill="#f7f7f7"/><path d="M47.5,90.857c-21.954,0-39.813-18.07-39.813-40.281S25.549,10.292,47.5,10.292s39.813,18.07,39.813,40.284S69.456,90.857,47.5,90.857m0-79.066c-21.126,0-38.314,17.4-38.314,38.785S26.377,89.358,47.5,89.358s38.314-17.4,38.314-38.782S68.628,11.792,47.5,11.792" transform="translate(15.371 20.573)" fill="#000001"/><path d="M21.81,70.586a.75.75,0,0,1,0-1.5c24.248,0,43.976-19.968,43.976-44.513a.75.75,0,0,1,1.5,0c0,25.373-20.4,46.013-45.476,46.013" transform="translate(42.101 47.626)" fill="#000001"/><path d="M55.587,64.738h0A5.848,5.848,0,0,1,51.4,62.983L30.532,41.866A.75.75,0,1,1,31.6,40.811L52.465,61.928a4.374,4.374,0,0,0,6.244,0,4.526,4.526,0,0,0,0-6.34L37.841,34.468a.749.749,0,0,1,1.065-1.053L59.774,54.532a6.032,6.032,0,0,1,0,8.452,5.848,5.848,0,0,1-4.187,1.754" transform="translate(60.605 66.352)" fill="#000001"/><path d="M27.481,24.6l3.827,11.5a1.168,1.168,0,0,1-.738,1.476L6.544,45.569a1.166,1.166,0,0,1-1.476-.738l-3.827-11.5" transform="translate(2.483 49.175)" fill="#f7f7f7"/><path d="M6.458,46.176a1.627,1.627,0,0,1-1.533-1.107L1.1,33.561l.855-.282,3.827,11.5a.693.693,0,0,0,.36.414.7.7,0,0,0,.546.039l24.026-7.99a.717.717,0,0,0,.453-.906l-3.827-11.5.855-.285,3.827,11.5A1.621,1.621,0,0,1,31,38.1L6.971,46.092a1.6,1.6,0,0,1-.513.084" transform="translate(2.197 49.081)" fill="#0085cb"/><path d="M15.265,35.956A85.957,85.957,0,0,1,2.929,38.808a.52.52,0,0,1-.573-.351Q1.286,35.232.209,32.006A1.17,1.17,0,0,1,.95,30.53l25.783-8.574a1.164,1.164,0,0,1,1.473.738l2.147,6.451a.517.517,0,0,1-.249.624,85.033,85.033,0,0,1-11.586,5.1" transform="translate(0.301 43.771)" fill="#f7f7f7"/><path d="M3.146,39.565a.967.967,0,0,1-.918-.669L.084,32.448A1.614,1.614,0,0,1,1.107,30.4L26.89,21.828a1.621,1.621,0,0,1,2.045,1.023l2.144,6.454a.963.963,0,0,1-.465,1.161A85.964,85.964,0,0,1,18.97,35.6l-.3-.849A85.5,85.5,0,0,0,30.2,29.674l-2.114-6.538a.717.717,0,0,0-.906-.453L1.392,31.258a.719.719,0,0,0-.456.906l2.147,6.451a78.279,78.279,0,0,0,12.347-2.789l.267.861A86.527,86.527,0,0,1,3.3,39.553a.877.877,0,0,1-.153.012" transform="translate(0 43.47)" fill="#0085cb"/><path d="M7.84,25.738,5.3,26.581a.382.382,0,0,0-.24.48L5.906,29.6a.382.382,0,0,0,.48.24l2.537-.846a.377.377,0,0,0,.24-.477L8.32,25.978a.38.38,0,0,0-.48-.24" transform="translate(10.083 51.413)" fill="#f7f7f7"/><path d="M6.57,30.607a.832.832,0,0,1-.789-.567L4.935,27.5a.834.834,0,0,1,.525-1.047L8,25.61a.832.832,0,0,1,1.044.525l.846,2.537a.831.831,0,0,1-.525,1.05l-2.537.843a.875.875,0,0,1-.258.042m1.647-4.121-2.471.822.891,2.447,2.444-.891Z" transform="translate(9.784 51.115)" fill="#0085cb"/><line y1="1.083" x2="3.254" transform="translate(16.569 81.667)" fill="#fff"/><rect width="3.431" height="0.901" transform="translate(16.427 82.324) rotate(-18.435)" fill="#0085cb"/><path d="M15.442,24.827l-.765-2.3a1.367,1.367,0,0,0-1.727-.864l-9.612,3.2a1.362,1.362,0,0,0-.864,1.727l.765,2.3" transform="translate(4.802 43.159)" fill="#f7f7f7"/><path d="M3.11,29.324l-.765-2.3a1.818,1.818,0,0,1,1.149-2.3l9.612-3.2a1.843,1.843,0,0,1,1.389.1,1.8,1.8,0,0,1,.909,1.05l.765,2.3-.852.285-.768-2.3a.9.9,0,0,0-.456-.528.92.92,0,0,0-.7-.051l-9.612,3.2A.912.912,0,0,0,3.2,26.739l.765,2.3Z" transform="translate(4.502 42.86)" fill="#0085cb"/><path d="M3.706,26.9l-.579-1.742a.152.152,0,0,1,.1-.192l8.1-2.693a.157.157,0,0,1,.2.093l.579,1.742" transform="translate(6.236 44.509)" fill="#f7f7f7"/><path d="M3.58,27.344,3,25.6a.6.6,0,0,1,.387-.759l8.095-2.693a.588.588,0,0,1,.456.024.6.6,0,0,1,.312.354l.579,1.739-.855.285-.483-1.458L3.949,25.6l.483,1.458Z" transform="translate(5.936 44.208)" fill="#0085cb"/><path d="M42.4,42.761a.461.461,0,0,1-.216-.054l-4.3-2.342a.45.45,0,0,1-.18-.612l8.967-16.486a.453.453,0,0,1,.612-.18l4.3,2.339a.449.449,0,0,1,.183.612l-8.97,16.489a.453.453,0,0,1-.4.234M38.7,39.789l3.512,1.91L50.755,26l-3.512-1.91Z" transform="translate(75.256 46.044)" fill="#000001"/><path d="M45.674,28.171,40.581,25.4l1.368-2.513a1.393,1.393,0,0,1,1.886-.555l2.651,1.443a1.386,1.386,0,0,1,.555,1.883ZM41.8,25.04l3.512,1.91.936-1.725a.483.483,0,0,0-.195-.663L43.4,23.12a.489.489,0,0,0-.666.195Z" transform="translate(81.126 44.304)" fill="#000001"/><path d="M40.871,29.454a.47.47,0,0,1-.216-.054.453.453,0,0,1-.18-.612l2.792-5.131a.449.449,0,1,1,.789.429L41.267,29.22a.453.453,0,0,1-.4.234" transform="translate(80.806 46.824)" fill="#000001"/><path d="M37.878,34.909l-.243-6.487,5.671,3.089Zm.714-4.94.126,3.353,2.807-1.757Z" transform="translate(75.237 56.817)" fill="#0085cb"/><path d="M57.871,31.071H55.886v-.9h1.985Zm-4.982,0h-3v-.9h3Zm-6,0h-3v-.9h3Zm-6,0h-3v-.9h3Z" transform="translate(75.755 60.314)" fill="#0085cb"/><path d="M21.372,38.973,2.312,17.518a.45.45,0,0,1,.036-.636L14.771,5.848a.54.54,0,0,1,.324-.114.449.449,0,0,1,.312.15L34.466,27.34l-.672.6L15.031,6.82,3.284,17.257l18.762,21.12Z" transform="translate(4.394 11.461)" fill="#000001"/><path d="M4.881,17.267,1.873,13.881a.45.45,0,0,1,.036-.636l9.033-8.029a.6.6,0,0,1,.327-.111.442.442,0,0,1,.309.15l3.011,3.389-.675.6L11.2,6.192,2.845,13.621l2.711,3.05Z" transform="translate(3.516 10.206)" fill="#000001"/><path d="M11.847,19.866l-2.51-2.822a.446.446,0,0,1,.039-.636L12.764,13.4a.448.448,0,0,1,.636.036l2.5,2.822-.672.6-2.207-2.486-2.714,2.411,2.207,2.486Z" transform="translate(18.435 26.556)" fill="#000001"/><path d="M7.555,15.492l-1.8-2.03,2.93-2.6,1.805,2.027-.675.6L8.608,12.127l-1.584,1.41L8.23,14.9Z" transform="translate(11.501 21.707)" fill="#0085cb"/><path d="M8.9,17,7.09,14.968l2.933-2.6,1.805,2.03-.675.6L9.948,13.633l-1.587,1.41L9.57,16.4Z" transform="translate(14.174 24.717)" fill="#0085cb"/><path d="M9.064,14.154l-1.805-2.03,2.933-2.6L12,11.551l-.675.6-1.206-1.356L8.53,12.2l1.209,1.356Z" transform="translate(14.51 19.031)" fill="#0085cb"/><path d="M6.217,13.986l-1.8-2.03,2.93-2.6,1.805,2.03-.675.6L7.27,10.621l-1.584,1.41,1.206,1.359Z" transform="translate(8.826 18.695)" fill="#0085cb"/><path d="M7.726,12.648,5.92,10.618l2.933-2.6,1.805,2.03-.675.6L8.778,9.283l-1.587,1.41L8.4,12.051Z" transform="translate(11.835 16.021)" fill="#0085cb"/><path d="M10.4,15.66,8.6,13.63l2.93-2.6,1.805,2.03-.675.6L11.452,12.3l-1.584,1.41,1.206,1.359Z" transform="translate(17.186 22.042)" fill="#0085cb"/><path d="M11.231,11.09l-.6-.675,1.694-1.506.6.675Z" transform="translate(21.258 17.809)" fill="#0085cb"/><path d="M11.9,11.843l-.6-.675L13,9.662l.6.675Z" transform="translate(22.595 19.314)" fill="#0085cb"/><path d="M12.569,12.593l-.6-.675,1.694-1.5.6.675Z" transform="translate(23.933 20.822)" fill="#0085cb"/><path d="M13.237,13.346l-.6-.675,1.694-1.5.6.675Z" transform="translate(25.27 22.327)" fill="#0085cb"/><path d="M24.479,19.658,14.743,8.7,10,12.919l-.6-.675,5.084-4.514a.54.54,0,0,1,.327-.114.464.464,0,0,1,.309.153L25.15,19.062Z" transform="translate(18.79 15.226)" fill="#000001"/><path d="M9.161,10.974l-.6-.675L11.95,7.291a.448.448,0,0,1,.636.039l2.51,2.822-.675.6-2.21-2.486Z" transform="translate(17.12 14.346)" fill="#000001"/><path d="M5.395,16.274,4.8,15.6l1.695-1.506.6.675Z" transform="translate(9.591 28.174)" fill="#0085cb"/><path d="M6.064,17.025l-.6-.675,1.695-1.5.6.675Z" transform="translate(10.929 29.681)" fill="#0085cb"/><path d="M6.733,17.778l-.6-.675L7.83,15.6l.6.675Z" transform="translate(12.266 31.186)" fill="#0085cb"/><path d="M7.4,18.533l-.6-.675L8.5,16.353l.6.675Z" transform="translate(13.603 32.69)" fill="#0085cb"/><path d="M13.659,29.281,3.627,17.989a.452.452,0,0,1-.114-.327.467.467,0,0,1,.15-.309L8.747,12.84l.6.675L4.6,17.729l9.735,10.956Z" transform="translate(7.023 25.667)" fill="#000001"/><path d="M5.864,18.367,3.356,15.545a.452.452,0,0,1-.114-.327.442.442,0,0,1,.15-.309L6.781,11.9l.6.675-3.05,2.711,2.21,2.486Z" transform="translate(6.481 23.784)" fill="#000001"/><path d="M22.566,46.6h-1.5v-2.5h1.5Zm0-5.491h-1.5v-3h1.5Zm0-6h-1.5v-3h1.5Zm0-6h-1.5v-3h1.5Z" transform="translate(42.113 52.206)" fill="#0085cb"/><path d="M28.368,48.924a.752.752,0,0,1-.747-.684L25.75,27.063l-2.966.9c-.1.03-7.081,1.853-7.081,7.465V48.174a.75.75,0,0,1-1.5,0V35.428c0-6.787,8.1-8.889,8.179-8.91L26.2,25.36a.75.75,0,0,1,.966.651l1.955,22.1a.75.75,0,0,1-.684.813l-.066,0" transform="translate(28.394 50.633)" fill="#000001"/><path d="M24.208,48.925l-.066,0a.75.75,0,0,1-.684-.813l1.952-22.1a.75.75,0,0,1,.966-.651l3.851,1.17c.045.009,8.149,2.111,8.149,8.9V48.175a.75.75,0,0,1-1.5,0V35.429c0-5.611-6.979-7.435-7.048-7.453l-3-.912L24.954,48.241a.752.752,0,0,1-.747.684" transform="translate(46.889 50.633)" fill="#000001"/><path d="M28.826,44.064c-5.236,0-10.3-6.724-11.055-14.69-.426-4.475-.462-9.006,2.117-11.844,1.832-2.015,4.754-2.993,8.937-2.993s7.108.981,8.94,2.993c2.435,2.678,2.606,6.673,2.117,11.844-.756,7.966-5.818,14.69-11.058,14.69m0-28.027c-3.737,0-6.3.819-7.828,2.5-2.189,2.408-2.126,6.562-1.733,10.695.675,7.1,5.143,13.331,9.561,13.331s8.889-6.229,9.561-13.331c.393-4.133.456-8.29-1.73-10.695-1.533-1.683-4.094-2.5-7.831-2.5" transform="translate(35.091 29.062)" fill="#000001"/><path d="M20.231,23.138a.751.751,0,0,1-.045-1.5c6.385-.393,7.648-4.235,7.7-4.4a.75.75,0,0,1,1.437.429c-.06.2-1.56,5.009-9.042,5.47h-.048" transform="translate(38.948 33.4)" fill="#000001"/><path d="M30.253,22.346a.681.681,0,0,1-.189-.024,24.844,24.844,0,0,1-7.819-3.608.75.75,0,0,1,.894-1.206,23.609,23.609,0,0,0,7.3,3.362.75.75,0,0,1-.189,1.476" transform="translate(43.865 34.71)" fill="#000001"/><path d="M47.671,36.309H66.694V7.923H27.256V36.309H41.2l-9.771,8.841" transform="translate(54.488 15.837)" fill="#f7f7f7"/><path d="M31.931,46.4a.75.75,0,0,1-.5-1.308l8.329-7.534h-12a.75.75,0,0,1-.75-.75V8.423a.75.75,0,0,1,.75-.75H67.194a.75.75,0,0,1,.75.75V36.809a.75.75,0,0,1-.75.75H48.171a.75.75,0,1,1,0-1.5H66.444V9.173H28.506V36.06H41.7a.752.752,0,0,1,.5,1.308l-9.771,8.841a.752.752,0,0,1-.5.192" transform="translate(53.988 15.338)" fill="#000001"/><path d="M54.691,11.972h-.132v-.9h.132Zm-3.131,0h-3v-.9h3Zm-6,0h-3v-.9h3Zm-6,0h-3v-.9h3Zm-6,0h-3v-.9h3Z" transform="translate(61.105 22.133)" fill="#0085cb"/><path d="M45.562,14.836h-3v-.9h3Zm-6,0h-3v-.9h3Zm-6,0h-3v-.9h3Z" transform="translate(61.105 27.858)" fill="#0085cb"/></g></g><rect width="137" height="137" transform="translate(1190 1209)" fill="none"/></g></svg>