<svg xmlns="http://www.w3.org/2000/svg" xmlns:xlink="http://www.w3.org/1999/xlink" width="95" height="76" viewBox="0 0 95 76"><defs><style>.a,.b,.e{fill:none;}.b{stroke:#2583c8;}.b,.e{stroke-miterlimit:10;}.c{clip-path:url(#a);}.d{fill:#0090df;}.e{stroke:#0c101b;stroke-dasharray:2 1;}.f{fill:#0c101b;}</style><clipPath id="a"><rect class="a" width="68.574" height="68.984"/></clipPath></defs><g transform="translate(-1200 -223)"><g transform="translate(1213.674 228)"><path class="b" d="M42.835,17.459l1.418-5.074-7.941.375L32.991,4.255l-7.049,4.74-6.9-4.516-2.8,7.607-8.388.189,2.162,8.24L3.341,25.444l6.75,4.881-2.385,8.13,7.858-.189,3.48,8.468,6.9-4.85,6.936,4.85,2.8-7.944,8.578-.224-2.2-8.616,6.53-4.458-4.175-2.926" transform="translate(8.158 10.391)"/><g transform="translate(0 0)"><g class="c"><path class="d" d="M14.905,9.475a.907.907,0,1,0,.909-.909.908.908,0,0,0-.909.909" transform="translate(36.4 20.921)"/><path class="e" d="M.25,33.8A33.394,33.394,0,1,0,20.744,2.961" transform="translate(0.611 0.903)"/><path class="f" d="M3.244,15.459a1.347,1.347,0,0,0,.819-.272l4.981-3.735,6.6,4.282a1.367,1.367,0,0,0,1.893-.406,1.369,1.369,0,0,0-.4-1.89L11.374,9.7l4.712-3.535,2.73,1.442a1.391,1.391,0,0,0,.64.162,1.368,1.368,0,0,0,1.208-.73,1.31,1.31,0,0,0,.079-1.05,1.412,1.412,0,0,0-.685-.8L17.4,3.81V1.37a1.365,1.365,0,0,0-2.709-.244,1.436,1.436,0,0,0-.028.244V3.783L9.815,7.435,8,1.029A1.374,1.374,0,0,0,6.69.038a1.428,1.428,0,0,0-.375.052,1.373,1.373,0,0,0-.94,1.69L7.5,9.194,2.421,13a1.368,1.368,0,0,0,.823,2.461" transform="translate(4.576 0.001)"/><path class="f" d="M18.984,13.746H6.5l.525-1.2H19.488Zm-1.029,2.409H6.5l.525-1.206H18.48ZM20.35,19.94a6.924,6.924,0,0,1-4.683,1.632,7.1,7.1,0,0,1-7.221-7.223,7.1,7.1,0,0,1,7.221-7.223,7.092,7.092,0,0,1,5.208,2.145l-.525,1.216a6.194,6.194,0,0,0-4.683-2.155A5.978,5.978,0,0,0,9.65,14.349a5.982,5.982,0,0,0,6.017,6.02,6.046,6.046,0,0,0,4.683-2.2Z" transform="translate(18.897 20.449)"/></g></g></g><rect class="a" width="95" height="76" transform="translate(1200 223)"/></g></svg>