<svg xmlns="http://www.w3.org/2000/svg" xmlns:xlink="http://www.w3.org/1999/xlink" width="95" height="76" viewBox="0 0 95 76"><defs><style>.a,.c,.e{fill:none;}.b{clip-path:url(#a);}.c,.e{stroke:#0c101b;stroke-miterlimit:10;}.d{fill:#f6f5f5;}.e{stroke-dasharray:2 1;}.f{fill:#2583c8;}.g{fill:#0c101b;}.h{fill:#161615;}</style><clipPath id="a"><rect class="a" width="90.821" height="65.576"/></clipPath></defs><g transform="translate(-906 -223)"><g transform="translate(908.109 230)"><g class="b" transform="translate(0 0)"><path class="c" d="M67.006,22.493,60.545,8.447H16.216L2.675,39.736H74.937l-2.823-6.13" transform="translate(7.871 24.854)"/><path class="d" d="M29.007,1.376A19,19,0,0,0,23.725.264c-.95-.039-2.184.016-2.7.043A16.523,16.523,0,0,0,16.8,1.2c-.162.071-.339.134-.5.209-.173.075-.315.134-.41.181A14.232,14.232,0,0,0,8.15,13.62c0,15.5,14.542,29.841,14.542,29.841S37.238,29.116,37.238,13.62A14.246,14.246,0,0,0,29.007,1.376" transform="translate(23.978 0.738)"/><path class="c" d="M29.007,1.376A19,19,0,0,0,23.725.264c-.95-.039-2.184.016-2.7.043A16.523,16.523,0,0,0,16.8,1.2c-.162.071-.339.134-.5.209-.173.075-.315.134-.41.181A14.232,14.232,0,0,0,8.15,13.62c0,15.5,14.542,29.841,14.542,29.841S37.238,29.116,37.238,13.62A14.246,14.246,0,0,0,29.007,1.376Z" transform="translate(23.978 0.738)"/><path class="c" d="M10.4,8.194a5.659,5.659,0,1,0,5.661-5.661A5.661,5.661,0,0,0,10.4,8.194Z" transform="translate(30.609 7.453)"/><path class="e" d="M2.675,30.1s28.982,0,38.415-9.224c0,0,14.325-13.009,25.915-8.018" transform="translate(7.87 34.484)"/><rect class="f" width="0.008" height="0.004" transform="translate(12.756 36.732)"/><rect class="f" width="0.008" height="0.004" transform="translate(10.864 34.327)"/><path class="f" d="M2.5,10.147h0Z" transform="translate(7.346 29.854)"/><rect class="f" width="0.008" height="0.004" transform="translate(6.213 38.892)"/><rect class="f" width="0.008" height="0.004" transform="translate(21.886 40.682)"/><rect class="f" width="0.008" height="0.004" transform="translate(17.215 40.682)"/><path class="f" d="M7.935,22.176a3.889,3.889,0,0,0-.213-1.947c1.352.982,2.5,2.129,3.914,2.389,1.951.359,22.8,4.131,22.8,4.131s-3.024-5.925-9.047-7.005c.442.043-6.658-.753-7.853-.954-3.619-.891-4.679-3.252-5.527-4.253A4,4,0,1,0,9.1,14.43l2.137,2.886S12.393,19.148,10,18.553a19.953,19.953,0,0,0-4.959-.777,3.987,3.987,0,1,0,2.893,4.4m24.4,3.39h0ZM29.49,23.075H29.5v0H29.49Zm-7.6-2.357h.008v0h-.008Zm-4.671,0h.008v0h-.008Zm-3.2-1.368a1.125,1.125,0,1,1-1.127,1.123,1.126,1.126,0,0,1,1.127-1.123m-1.261-2.582h.008v0h-.008Zm-1.88-2.4h-.008v0h.008ZM11,13.046a2.293,2.293,0,1,1,1.955-2.59A2.29,2.29,0,0,1,11,13.046M9.843,20.035h0ZM6.212,18.924H6.22v0H6.212ZM1.718,21.3a2.293,2.293,0,1,1,1.951,2.59A2.294,2.294,0,0,1,1.718,21.3" transform="translate(0.001 19.966)"/><path class="f" d="M6.057,17.883h5.83L8.257,11.915l-5.33-.8Z" transform="translate(8.611 32.701)"/><path class="g" d="M43.776,10.29,38.525,31.569a.583.583,0,0,1-.706.43l-9.445-2.33a.583.583,0,1,1,.284-1.131l8.874,2.192,4.774-19.355L18.077,25.928l7.234,1.782a.587.587,0,0,1,.426.71.581.581,0,0,1-.706.422l-8.6-2.121a.585.585,0,0,1-.162-1.068l26.64-16a.585.585,0,0,1,.646.032.569.569,0,0,1,.221.607" transform="translate(47.03 28.153)"/><path class="f" d="M31.886,12.106l0,.012-2.464,9.989a.583.583,0,0,1-.706.426l-10.04-2.48a.572.572,0,0,1-.438-.477.587.587,0,0,1,.276-.587L30.94,11.522a.584.584,0,0,1,.946.583m-3.461,9.153L30.416,13.2,20.324,19.261Z" transform="translate(53.629 33.489)"/><path class="h" d="M19.658,14.474a.582.582,0,0,1-1.064.166l-.729-1.2a.584.584,0,0,1,1-.607l.729,1.2a.587.587,0,0,1,.067.442" transform="translate(52.304 36.927)"/><path class="h" d="M21.245,13.524a.6.6,0,0,1-.264.359.583.583,0,0,1-.8-.2l-.733-1.2a.583.583,0,1,1,1-.6l.733,1.2a.585.585,0,0,1,.067.442" transform="translate(56.969 34.125)"/><path class="h" d="M22.83,12.569a.583.583,0,0,1-1.064.166l-.729-1.2a.584.584,0,1,1,1-.607l.729,1.2a.585.585,0,0,1,.067.442" transform="translate(61.637 31.319)"/></g></g><rect class="a" width="95" height="76" transform="translate(906 223)"/></g></svg>