<svg xmlns="http://www.w3.org/2000/svg" xmlns:xlink="http://www.w3.org/1999/xlink" width="137" height="137" viewBox="0 0 137 137"><defs><clipPath id="a"><rect width="122.19" height="131.089" fill="none"/></clipPath></defs><g transform="translate(-889 -1209)"><g transform="translate(891 1212)"><g transform="translate(0 0)" clip-path="url(#a)"><path d="M91.309,40.841A43.34,43.34,0,0,0,9.217,38.274l-1.479-.552A44.919,44.919,0,0,1,92.82,40.384Z" transform="translate(16.67 18.285)" fill="#000001"/><path d="M16.461,39.325c-1.372-.82-2.729-1.713-4.031-2.656l.839-1.164c1.271.918,2.593,1.789,3.927,2.587Z" transform="translate(26.779 76.492)" fill="#0b2d67"/><path d="M32.5,30.942a2.869,2.869,0,0,1-2.457-2.927c-.022-8.659.558-4.634.858-6.728,1.83,1.852,1.565,2.905,1.975,4.782.274,1.237.054,2.259.555,2.952" transform="translate(64.725 45.861)" fill="#fff"/><path d="M31.39,25.265A3.5,3.5,0,0,1,30.526,25l.382-.864a2.532,2.532,0,0,0,.628.189Z" transform="translate(65.764 52.005)" fill="#0085cb"/><path d="M30.871,29.4a3.117,3.117,0,0,1-.927-1.82l.937-.145a2.215,2.215,0,0,0,.643,1.284Zm-.028-2.952h-.949c0-.675,0-1.265.013-1.782l.949.016c-.009.514-.013,1.1-.013,1.766m.035-2.823-.949-.028c.025-.808.066-1.4.117-1.814l.937.12c-.047.382-.082.946-.1,1.722" transform="translate(64.4 46.934)" fill="#0085cb"/><path d="M30.685,23.1l-.473-.817a.239.239,0,0,0-.076.066,1.375,1.375,0,0,0,.1-.438l.136-.946.669.681a7.881,7.881,0,0,1,.558.612l-.615.514a.774.774,0,0,1-.3.328" transform="translate(64.924 45.169)" fill="#0085cb"/><path d="M31.478,26.421a7.4,7.4,0,0,0-.145-1.1c-.047-.211-.088-.413-.12-.609l.937-.155c.025.177.06.36.107.555a8.5,8.5,0,0,1,.164,1.243Zm-.432-2.754a4.726,4.726,0,0,0-.5-1.533l.83-.451a5.612,5.612,0,0,1,.6,1.817Z" transform="translate(65.809 46.714)" fill="#0085cb"/><path d="M31.253,24.574a2.2,2.2,0,0,1-.375-.918l.931-.177a1.3,1.3,0,0,0,.208.539Z" transform="translate(66.522 50.583)" fill="#0085cb"/><path d="M56.748,15.4a12.573,12.573,0,0,0-1.5.792,17.491,17.491,0,0,1-3.265,1.429s-.867.315-1.221-.173.89-3.088-.615-3.47c-1.52-.382-6.179-1.047-8.722.29s-4.511,3.463-4.255,3.9c.246.413.6.571.489,1.328-.079.565.148,1.612-.369,2.3-.281.142-.722.413-1.214.615a1.378,1.378,0,0,0-.23.088,1.808,1.808,0,0,1-2.293-.631c-.12-.183,0-.53.022-.861.032-1.025.107-2.378.079-2.792-.022-.549-.388-2.025-.937-1.83s-2.788,2.328-3.527,2.451c-.754.107-1.653-.173-1.785.457-.148.631.52,2.53,1.517,2.52.987-.025,2.413-.808,2.836-.536a3.058,3.058,0,0,1,.492,2.435c-.2.684.038,1.265-1.4,1.394-1.432.114-2.252-1.035-2.874-.41s-1.83,2.2-1.76,2.811c.063.479,1.29.987,2.025,1.306a8.67,8.67,0,0,0,3.915-.4,10.487,10.487,0,0,1,4.015-1.126c.211.028,1.221.249,2.394.448a4.565,4.565,0,0,0,2.467,2.154,3.71,3.71,0,0,0,2.135.214.874.874,0,0,1,1.107.549,3.619,3.619,0,0,0,.347.795c.675,1.142,1.158.379,1.158.379s-.4-1.319.363-1.208a2.8,2.8,0,0,1,1.7.953A3.414,3.414,0,0,0,49.3,33.155a1.262,1.262,0,0,1,.461,1.536s-5.381-.054-7.413-.782a6.066,6.066,0,0,1-3.6-2.924c-.99-1.46-.41-2.681-2.905-2.325s-2.738.871-4.325.962a19.563,19.563,0,0,0-2.905.524c-.032.013-.06.006-.091.019-1.095.192-2.593.268-3.126,1.054a18.491,18.491,0,0,1-1.356,2.218c-.826,1.035-2.555,1.729-2.675,2.259a45.067,45.067,0,0,0-1.072,7.514c.035,2.309,1.031,2.621,1.9,4.214.871,1.609,1.3,1.943,2.681,2.079,1.394.151,2.612-.281,4.574-.167s3.347-.069,3.908,1.164-.17,2.6.565,3.747c.716,1.148,2.2.256,1.943,2.476-.259,2.2-1.151,5.142-1.445,6.794s1.252,4.788,1.464,6.242.5,1.707,2.18,1.949a5.048,5.048,0,0,0,4.791-1.394,39.9,39.9,0,0,0,4.164-4.287,9.438,9.438,0,0,0,2.672-4.441c.341-1.694-1.151-1.738,1.12-3.508,2.65-2.063,2.053-1.164,3.274-2.634" transform="translate(43.703 29.025)" fill="#f7f7f7"/><path d="M32,15.157l-.457-.833a4.389,4.389,0,0,1,.814-.385l.252.912-.126-.454.129.454a5.084,5.084,0,0,0-.612.306" transform="translate(67.961 30.031)" fill="#0085cb"/><path d="M25.7,29.642c-.407,0-.82-.016-1.221-.041l-.161-.038-.35-.151.372-.867.274.117c.36.022.722.035,1.072.035Zm.984-.035-.076-.943a4.91,4.91,0,0,0,1.4-.268l.347.88a5.864,5.864,0,0,1-1.675.331m-3.605-.625c-.688-.369-1.016-.707-1.063-1.1a1.6,1.6,0,0,1,.12-.65l.89.331a.647.647,0,0,0-.066.237c0-.044.123.107.568.35Zm6.151-.11L28.869,28a13.554,13.554,0,0,1,1.546-.533l.259.912a12.311,12.311,0,0,0-1.438.492m3.7-.691-.142-.028c-.205-.041-.35-.069-.416-.079a3.314,3.314,0,0,0-.817.095l-.186-.927a4,4,0,0,1,1.132-.1c.082.013.243.044.473.088l.136.028Zm-9.507-1.363-.8-.511a11.258,11.258,0,0,1,1-1.312l.71.621a11.349,11.349,0,0,0-.908,1.2m3.792-.931-.1-.943c.732-.069.773-.237.811-.41l.921.214c-.164.7-.65,1.041-1.634,1.139m-1.1-.091a5.593,5.593,0,0,1-.845-.306A2.515,2.515,0,0,0,24.7,25.3l.079-.943a2.942,2.942,0,0,1,.852.265,5.041,5.041,0,0,0,.713.262Zm2.934-2.038-.943-.085a1.849,1.849,0,0,0,.009-.233,3.521,3.521,0,0,0-.183-1.123l.9-.315a4.674,4.674,0,0,1,.233,1.438c0,.114,0,.218-.013.319m2.725-.363-.177-.931a2.468,2.468,0,0,0,.363-.1,1.77,1.77,0,0,1,.265-.1c.215-.091.47-.224.688-.344l.451.833a8.646,8.646,0,0,1-.836.407,1,1,0,0,0-.2.076,3.606,3.606,0,0,1-.558.158M30.6,23.356a2.259,2.259,0,0,1-1.167-.9.846.846,0,0,1-.142-.5c0-.063.009-.136.016-.208l.94.107-.483.1.479.025a1.336,1.336,0,0,0,.637.461Zm-5.394-.751a1.827,1.827,0,0,1-1.524-1.088l.823-.47c.218.382.47.612.681.612l.161.937Zm1.161-.221-.262-.908.429-.132a4.956,4.956,0,0,1,1.224-.278l.013.946a4.421,4.421,0,0,0-.953.237Zm7.851-.524-.9-.315a2.745,2.745,0,0,0,.11-.905V20.2l.716-.047.227.013.006.473a3.645,3.645,0,0,1-.164,1.221m-3.892-.975-.943-.035.019-.558c.016-.36.035-.713.038-1.013l.949.022c-.009.309-.022.666-.041,1.028Zm-7.047-.363a2.948,2.948,0,0,1-.1-.707,1.329,1.329,0,0,1,.028-.315,1,1,0,0,1,.99-.779l.1.94a.56.56,0,0,0-.173.041,2.021,2.021,0,0,0,.073.584Zm1.927-.874-.032-.946c.073,0,.142-.009.211-.019a3.2,3.2,0,0,0,.918-.568l.568.763a3.613,3.613,0,0,1-1.344.738,2.222,2.222,0,0,1-.322.032m8.236-.3a1,1,0,0,0-.186-.3c-.076-.1-.155-.205-.23-.325l-.063-.114v-.132a1.682,1.682,0,0,1,.372-.918l.779.533a1.95,1.95,0,0,0-.173.3l.06.079a1.826,1.826,0,0,1,.341.577Zm14.239-.836-.006-.943a1.515,1.515,0,0,0,.391-.066l.066-.022c.11-.038.451-.155.89-.319l.334.883c-.448.173-.808.293-.918.331v0l-.025.009a2.2,2.2,0,0,1-.732.129m-18.245-.11a3.166,3.166,0,0,0-.407-1.237l.725-.6a3.9,3.9,0,0,1,.621,1.719Zm-1.807-.12-.59-.741.315-.249c.36-.287.691-.552.949-.738l.552.77c-.252.177-.571.432-.912.707Zm22.626-.6-.379-.867a10.4,10.4,0,0,0,1.344-.678l.511.795a10.614,10.614,0,0,1-1.476.751M46.5,17.618l-.009-.148a6.233,6.233,0,0,1,.1-.842c.032-.214.069-.442.091-.669l.94.095c-.022.246-.063.489-.1.722a4.708,4.708,0,0,0-.079.694Zm-11.829-.189-.688-.653a11.925,11.925,0,0,1,1.214-1.1l.59.738a11.1,11.1,0,0,0-1.117,1.019m1.852-1.568-.543-.776a14.35,14.35,0,0,1,1.385-.858l.451.833a12.516,12.516,0,0,0-1.293.8m10.144-.694a.46.46,0,0,0-.372-.407c-.12-.028-.265-.063-.429-.1l.18-.927c.186.038.347.076.486.107A1.4,1.4,0,0,1,47.6,14.959Zm-8.053-.454-.312-.9a8.74,8.74,0,0,1,1.628-.369l.129.937a7.839,7.839,0,0,0-1.445.328m6.343-.211c-.461-.069-.984-.129-1.536-.177l.079-.943c.571.047,1.117.114,1.6.186Zm-3.99-.205-.06-.946c.543-.032,1.085-.035,1.618-.019l-.032.946c-.5-.016-1.019-.013-1.527.019" transform="translate(47.438 28.702)" fill="#0085cb"/><path d="M26.74,19.343c-.126-.164-.243-.331-.356-.511l-.574-.1.17-.931.984.173.11.183a6.656,6.656,0,0,0,.416.609Z" transform="translate(55.602 38.351)" fill="#0085cb"/><path d="M31.166,21.139a5.989,5.989,0,0,1-.3-.722.421.421,0,0,0-.208-.233l.4-.858a1.392,1.392,0,0,1,.707.776,3.685,3.685,0,0,0,.246.606ZM29.6,20.266a4.69,4.69,0,0,1-1.088-.142l.224-.921a3,3,0,0,0,1.211.088l.167.931a2.814,2.814,0,0,1-.514.044m-1.968-.423a4.345,4.345,0,0,1-1.328-.861l.647-.691a3.33,3.33,0,0,0,1.038.678Z" transform="translate(56.664 39.407)" fill="#0085cb"/><path d="M28.579,20.578a.962.962,0,0,1-.5-.145l.41-.684a2.576,2.576,0,0,1-.06-.722l.943.082a2,2,0,0,0,.085.612l.06.205-.114.183a1,1,0,0,1-.823.47" transform="translate(60.488 40.99)" fill="#0085cb"/><path d="M31.438,22.19l-.151-.082a4.578,4.578,0,0,1-1.211-1.091l.744-.584a3.76,3.76,0,0,0,.994.89Zm-1.782-1.9a3,3,0,0,0-1.142-.6l.227-.918A3.987,3.987,0,0,1,30.3,19.6Z" transform="translate(61.429 40.447)" fill="#0085cb"/><path d="M30.491,21.257l-.328,0s-.3,0-.785-.016l.025-.946.388.009a1.024,1.024,0,0,0-.009-.218l.931-.155a2.061,2.061,0,0,1-.1,1.025Z" transform="translate(63.291 42.935)" fill="#0085cb"/><path d="M39.655,62.288c-.177,0-.363-.006-.552-.022l.076-.943c.177.013.36.013.514.022a3.7,3.7,0,0,0,.918-.107l.221.921a4.046,4.046,0,0,1-1.177.129m-1.533-.142a3.17,3.17,0,0,1-1.732-.634l.647-.691a2.409,2.409,0,0,0,1.23.388Zm3.7-.356-.42-.845a6.9,6.9,0,0,0,1.237-.82l.593.738a7.686,7.686,0,0,1-1.41.927m-5.984-1.356a6.014,6.014,0,0,1-.11-.612,7.513,7.513,0,0,0-.227-.915l.905-.274a8.031,8.031,0,0,1,.256,1.05c.032.2.06.375.1.53Zm8.141-.2-.628-.707c.42-.372.792-.729,1.126-1.072l.678.662c-.353.36-.738.732-1.177,1.117m1.842-1.823-.694-.637c.306-.338.593-.669.877-.99l.167-.189.713.621-.17.192c-.284.328-.577.662-.893,1m-10.608-.394-.047-.145c-.151-.448-.309-.915-.451-1.382l.905-.278c.139.457.293.918.442,1.356l.05.145Zm12.305-1.5-.694-.64.151-.167c.312-.328.609-.659.886-1l.732.6c-.3.356-.6.7-.924,1.038Zm-13.068-.972a6.912,6.912,0,0,1-.224-1.587v-.12l.946.044-.473-.022.473.06a5.781,5.781,0,0,0,.2,1.4Zm14.74-1.025-.776-.539a8.11,8.11,0,0,0,.738-1.3l.867.382a8.864,8.864,0,0,1-.83,1.46m-13.879-1.5-.924-.2c.1-.467.227-1,.366-1.565l.918.227c-.136.555-.262,1.076-.36,1.536m15.053-.924-.912-.249q.043-.175.085-.36a2.206,2.206,0,0,0,.041-.413,1.988,1.988,0,0,0-.079-.549l.918-.24a3,3,0,0,1,.047,1.391c-.032.148-.066.284-.1.42M35.9,50.547l-.921-.221c.123-.508.243-1.028.356-1.539l.924.2c-.114.524-.237,1.05-.36,1.561M50.326,49.6l-.905-.274A3.249,3.249,0,0,1,50.588,47.9l.6.735a2.571,2.571,0,0,0-.858.968m1.6-1.546-.574-.754c.637-.483,1.041-.754,1.328-.937l.511.8c-.274.173-.659.432-1.265.893m-15.472-.022-.931-.164c.076-.42.142-.826.186-1.211.009-.1.019-.208.022-.3l.946.041c-.006.114-.016.237-.028.366-.05.41-.117.836-.2,1.271M35.627,45.7c-.085-.139-.249-.205-.536-.306a3.216,3.216,0,0,1-.678-.315l.514-.795a2.2,2.2,0,0,0,.486.218,1.79,1.79,0,0,1,1.019.7Zm-1.981-1.561a3.48,3.48,0,0,1-.24-1.378c0-.129,0-.262.006-.391l.946.035c0,.12-.006.237-.006.356a2.422,2.422,0,0,0,.164,1Zm-.227-2.675a2.268,2.268,0,0,0-.177-.776,1.154,1.154,0,0,0-.249-.363l.662-.678a2.123,2.123,0,0,1,.445.647,3.055,3.055,0,0,1,.262,1.107ZM32.375,40a7.418,7.418,0,0,0-1.479-.151l.038-.946a8.041,8.041,0,0,1,1.678.183Zm-6.539,0,0-.946c.429,0,.858-.047,1.312-.095l.227-.022.091.943-.221.022c-.489.05-.946.095-1.407.1m-1.019-.073a2.731,2.731,0,0,1-1.694-.763l.669-.672a1.807,1.807,0,0,0,1.158.5Zm5.123-.12-.2-.006a11.155,11.155,0,0,0-1.341,0l-.06-.946a12.243,12.243,0,0,1,1.445,0l.2.009Zm-7.46-1.489c-.12-.2-.249-.423-.388-.681a7.645,7.645,0,0,0-.413-.656l.779-.543c.155.221.309.467.467.744.129.246.249.454.363.64Zm-1.363-2.094a4.525,4.525,0,0,1-.795-1.558l.912-.249a3.591,3.591,0,0,0,.647,1.246Zm-.962-2.59c-.009-.136-.016-.278-.019-.429v-.12c0-.334.019-.71.05-1.113l.943.076c-.032.375-.047.726-.047,1.038,0,.24.006.363.016.479Zm1.066-2.52-.937-.11c.057-.52.136-1.063.214-1.593l.937.145c-.082.517-.155,1.047-.215,1.558m.369-2.5-.934-.161c.1-.58.2-1.123.29-1.577l.927.18c-.085.451-.186.984-.284,1.558m.473-2.482-.924-.205.082-.363c.091-.4.511-.707,1.091-1.1l.527.785a3.632,3.632,0,0,0-.707.558Zm26.263-1.031c-.483-.022-1.035-.05-1.6-.095l.069-.943c.561.041,1.1.069,1.577.091Zm-2.564-.173c-.552-.054-1.1-.12-1.609-.2L44.3,23.8c.489.079,1.019.142,1.552.192ZM23.644,24.71l-.558-.763a4.69,4.69,0,0,0,.9-.811l.123-.158.4.256.347.325-.132.167a5.479,5.479,0,0,1-1.082.984m19.535-.164a6.184,6.184,0,0,1-.672-.2,9.65,9.65,0,0,1-.908-.369l.394-.858c.252.114.524.224.833.338a5.62,5.62,0,0,0,.577.167ZM40.7,23.483a5.442,5.442,0,0,1-1.262-1.177l.738-.593a4.54,4.54,0,0,0,1.047.981ZM25.448,22.66l-.836-.448.136-.265a9.29,9.29,0,0,1,.571-1,1.7,1.7,0,0,1,.164-.2l.691.647a.611.611,0,0,0-.073.085,7.62,7.62,0,0,0-.5.893Zm13.4-1.151-.18-.265a5.884,5.884,0,0,1-.612-1.233l.883-.341a4.941,4.941,0,0,0,.514,1.044l.173.256ZM26.8,21.032l-.312-.893a9.552,9.552,0,0,1,1.64-.35l.139.937a9.117,9.117,0,0,0-1.467.306m2.423-.464-.167-.931c.42-.073.688-.145.931-.208.2-.054.385-.1.612-.145l.177.931c-.205.038-.369.082-.549.129-.262.069-.549.145-1,.224m2.454-.467-.088-.94.218-.019a5.089,5.089,0,0,0,1.255-.218l.268.908a6.126,6.126,0,0,1-1.464.256Zm2.561-.555-.271-.905a13.007,13.007,0,0,1,1.6-.372l.161.934a11.953,11.953,0,0,0-1.492.344m3.476-.24c-.123-.139-.394-.281-1.082-.23l-.073-.943a2.028,2.028,0,0,1,1.871.552Z" transform="translate(43.38 39.028)" fill="#0085cb"/><path d="M31.408,27.912l-.684-.653c.129-.136.284-.319.5-.577l.729.606c-.233.281-.4.479-.543.625" transform="translate(66.19 57.484)" fill="#0085cb"/><path d="M9.922,42.229A12.5,12.5,0,0,1,13.2,44.292a4.822,4.822,0,0,1,1.419,3.4c-.2,1.375-.839,1.792-.9,3.665-.035.965.177.931.123,1.807-.1,1.571-.817,2.29-1.268,3.549a8.912,8.912,0,0,0-.205,4.1c.391,4.716,3.41,9.271,4.009,10.154A26.48,26.48,0,0,0,20.7,76.442a32.9,32.9,0,0,0,5.539,4.2c1.691,1.076,1.88,1.025,4.161,2.486a16.837,16.837,0,0,0,3.328,1.99c2.29.82,4.867.558,5-.054.057-.246-.252-.672-1.82-1.457a25.885,25.885,0,0,1-4.672-3.249c-2.072-1.814-2.363-2.665-2.46-3-.451-1.561.442-1.975.407-4.426-.038-2.722-1.173-3.451-.47-4.725a19.491,19.491,0,0,0,1.546-2.445,1.491,1.491,0,0,0,.164-1.076c-.082-.246-.325-.4-.71-.782-.722-.722.088-1.483.173-2.965s.716-1,.814-2.65.057-.972-.65-1.924a2.987,2.987,0,0,0-.908-.934c-.479-.249-.7.028-.99-.189-.375-.287-.183-.921-.233-1.927a4.108,4.108,0,0,0-.707-2.527c-.577-.606-1.2-.274-2.527-.6-1.719-.416-1.691-1.208-3.066-1.634-2.315-.722-3.684,1.123-5.123.334-.621-.341-1.322-1.2-1.486-3.6-.811-1.416-1.836-4.094-.886-5.148.53-.584,1.12-.063,2.284-.647,1.312-.659,1.019-1.555,2.845-3.287,1.732-1.64,2.921-1.71,3.262-1.5a.084.084,0,0,0,.05.019c.268,0,.52-1.246.732-2.647.129-.211.328-.473.543-.454.274.028.319.5.672.735a1.442,1.442,0,0,0,1.249-.073c2.025-.8,2.915-.066,4.946-1.211A6.1,6.1,0,0,0,34.835,27.8c.347-1.126-.047-1.587.429-3,.454-1.347.978-1.419,1.53-2.713a6.084,6.084,0,0,0,.432-3.93c-.77-2.536-3.889-3.2-4.1-3.249q-1.145-2.423-2.29-4.851" transform="translate(21.375 21.663)" fill="#f7f7f7"/><path d="M10.541,21.307c-.4-.2-.669-.319-.678-.322l.372-.867s.3.126.732.344Z" transform="translate(21.248 43.343)" fill="#0085cb"/><path d="M35.838,82.546c-.23,0-.47-.009-.716-.028l.073-.943a6.788,6.788,0,0,0,1.473-.025l.129.937a6.822,6.822,0,0,1-.959.06m-1.706-.158A9.237,9.237,0,0,1,32.681,82l-.155-.06.341-.88.129.044a7.945,7.945,0,0,0,1.306.35Zm3.754-.24-.4-.647h-.11s-.066-.158-.59-.5l.511-.795c.476.306,1.025.729,1.025,1.29a.884.884,0,0,1-.432.647M31.6,81.5c-.265-.158-.555-.353-.953-.615l-.388-.262.524-.789.391.262c.382.252.659.438.912.59Zm4.388-.937-.18-.091c-.442-.24-.842-.473-1.221-.707l.492-.808c.366.224.757.451,1.164.672l.186.095ZM29.476,80.1l-.214-.136c-.442-.284-.8-.508-1.11-.7l.492-.8c.312.189.681.416,1.126.7l.2.129Zm4.3-.858c-.476-.319-.915-.631-1.312-.931l.571-.757q.573.44,1.265.9ZM27.347,78.8l-.5-.281c-.281-.158-.552-.309-.88-.5l.483-.811c.319.189.587.338.861.489l.5.284Zm4.359-1.079c-.243-.2-.464-.388-.666-.568s-.382-.338-.549-.5l.65-.688q.237.222.52.473c.2.173.413.353.643.543Zm-6.561-.211c-.442-.284-.871-.555-1.328-.858l.524-.789c.451.3.874.568,1.265.817l-.2.435Zm-2.12-1.4q-.629-.435-1.293-.946l.577-.751q.648.5,1.255.921Zm6.776-.139a7.792,7.792,0,0,1-1.044-1.315l.814-.486a6.867,6.867,0,0,0,.915,1.151Zm-8.82-1.41q-.6-.5-1.208-1.066l.65-.691q.582.554,1.161,1.025Zm7.381-.934a3.309,3.309,0,0,1-.073-.669,4.216,4.216,0,0,1,.177-1.107l.915.243a3.25,3.25,0,0,0-.145.864,2.321,2.321,0,0,0,.054.476Zm-9.283-.808c-.341-.344-.71-.738-1.095-1.18l.713-.621c.372.426.729.8,1.057,1.136ZM29.615,71.15l-.927-.186a7.594,7.594,0,0,0,.139-1.457l.946-.019a8.574,8.574,0,0,1-.158,1.662m-12.248-.243c-.319-.394-.647-.82-.975-1.281l.77-.552c.315.445.631.855.94,1.233Zm-1.524-2.072q-.379-.563-.754-1.189l-.1-.145.792-.52.1.155c.259.429.5.811.744,1.173Zm12.936-.243a8.682,8.682,0,0,0-.293-1.467l.912-.259a9.574,9.574,0,0,1,.322,1.624Zm-14.3-1.9c-.237-.382-.514-.852-.808-1.391l.833-.454c.284.52.552.975.779,1.344Zm13.747-.5a2.8,2.8,0,0,1-.095-.71,2.159,2.159,0,0,1,.29-1.072l.457.151.407.24a1.3,1.3,0,0,0-.208.684,2.009,2.009,0,0,0,.066.483Zm-15-1.754c-.227-.454-.457-.943-.678-1.457l.871-.372c.214.5.435.968.656,1.407ZM29.8,64.068l-.763-.558a8.813,8.813,0,0,0,.792-1.274l.845.429a9.414,9.414,0,0,1-.874,1.4M12.177,62.09c-.189-.5-.366-1.009-.52-1.533l.905-.271c.151.5.319.99.5,1.464Zm18.869-.467-.94-.117.006-.088a.561.561,0,0,0-.022-.148,1.446,1.446,0,0,0-.274-.287c-.095-.085-.2-.186-.325-.309l.29-.382.347-.319c.142.145.243.233.328.312a1.7,1.7,0,0,1,.53.685,1.4,1.4,0,0,1,.069.448c0,.066,0,.136-.009.205M11.4,59.617c-.123-.524-.227-1.057-.3-1.6l.937-.129c.073.508.17,1.009.287,1.508Zm18.62-.126-.934-.158a5.492,5.492,0,0,1,.177-.672,7.263,7.263,0,0,0,.218-.861l.934.164a8.861,8.861,0,0,1-.246.972,4.329,4.329,0,0,0-.148.555M11,57.05c-.054-.618-.091-1.136-.1-1.6l.946-.025c.013.451.05.956.1,1.552Zm19.519-.025-.931-.167a2.313,2.313,0,0,1,.41-.984,1.591,1.591,0,0,0,.243-.486l.908.262a2.471,2.471,0,0,1-.366.751,1.364,1.364,0,0,0-.265.625m.782-2.413-.946-.057c.019-.306.032-.517.028-.669a.963.963,0,0,0-.009-.17,2.538,2.538,0,0,1-.259-.237l.684-.653c.06.063.11.107.151.148a1.011,1.011,0,0,1,.379.908c0,.161-.013.391-.028.729m-19.44-.079-.94-.088a5.785,5.785,0,0,1,.325-1.457l.079-.2.438.177.4.274a5.13,5.13,0,0,0-.3,1.3M29.5,52.716a1.553,1.553,0,0,0-.461-.429.442.442,0,0,0-.221-.057c-.161.009-.214.013-.265.013l-.035-.946c.177-.009.237-.013.3-.013a1.4,1.4,0,0,1,.656.164,2.454,2.454,0,0,1,.757.669Zm-16.917-.4-.849-.423.057-.11a7.427,7.427,0,0,0,.533-1.259l.908.262a7.837,7.837,0,0,1-.6,1.419Zm14.977-1.227,0-.167.006-.344c0-.136.009-.281.009-.435,0-.117-.006-.237-.009-.366l-.016-.249.943-.063.013.218c.009.2.016.331.016.461,0,.164-.006.322-.009.464l-.006.315,0,.139ZM13.42,49.757l-.943-.073.009-.12c0-.082.006-.161.006-.233a2.438,2.438,0,0,0-.057-.52,3.917,3.917,0,0,1-.076-.64l.943-.038a3.2,3.2,0,0,0,.063.5,3.3,3.3,0,0,1,.069.694c0,.091,0,.189-.006.3Zm14.027-1.12a2.107,2.107,0,0,0-.467-1.085l.58-.757.107.1a2.987,2.987,0,0,1,.71,1.561Zm-1.113-1.344-.281-.019a7.223,7.223,0,0,1-1.35-.183l.218-.921a6.439,6.439,0,0,0,1.192.161l.306.019Zm-12.986-.028-.94-.11a6.323,6.323,0,0,1,.423-1.64l.883.341a5.451,5.451,0,0,0-.366,1.41m10.365-.514a4.747,4.747,0,0,1-.972-.647c-.123-.1-.243-.2-.382-.293l.536-.779c.158.11.3.221.438.334a3.739,3.739,0,0,0,.789.53Zm-5.851-.792-.155-.934a5.937,5.937,0,0,0,.886-.252c.183-.063.372-.126.568-.183l.268.908c-.183.054-.36.114-.533.173a6.863,6.863,0,0,1-1.035.287m-1.177-.079a2.761,2.761,0,0,1-.3-.136,2.677,2.677,0,0,1-1.072-1.154l.839-.435a1.757,1.757,0,0,0,.688.76,1.407,1.407,0,0,0,.173.079Zm4.959-.416-.085-.032a3.186,3.186,0,0,0-1.284-.114l-.107-.94a4.18,4.18,0,0,1,1.707.164Zm-7.6-.536-.908-.265a3.994,3.994,0,0,0,.132-.6c0-.035.006-.079.006-.129a2.9,2.9,0,0,0-.073-.59l.924-.205a3.792,3.792,0,0,1,.095.795,2.069,2.069,0,0,1-.016.259,5.171,5.171,0,0,1-.161.738m.9-1.315a9.1,9.1,0,0,1-.271-1.643l.943-.076a8.362,8.362,0,0,0,.24,1.47Zm-2-1.095A4.622,4.622,0,0,0,12.2,41.3l.716-.615a5.457,5.457,0,0,1,.9,1.467Zm1.413-1.243a11.845,11.845,0,0,1-.615-1.524l.9-.293a11.126,11.126,0,0,0,.568,1.407ZM11.578,40.7a10.372,10.372,0,0,0-1.246-.845l.476-.814a10.562,10.562,0,0,1,1.366.927Zm1.905-1.921a4.978,4.978,0,0,1-.1-.965,3.01,3.01,0,0,1,.107-.823l.908.268a1.942,1.942,0,0,0-.069.558,3.86,3.86,0,0,0,.082.782Zm1.23-1.978-.435-.842a1.963,1.963,0,0,1,.858-.173,3,3,0,0,0,.77-.11l.278.905a3.713,3.713,0,0,1-1.006.148,1.154,1.154,0,0,0-.464.073m2.454-.7-.549-.773a2.8,2.8,0,0,0,.767-.946l.085-.136.808.5-.082.132A3.706,3.706,0,0,1,17.167,36.1M18.779,34l-.751-.574A9.155,9.155,0,0,1,19.044,32.3l.754.59-.1.1A8.324,8.324,0,0,0,18.779,34m1.7-1.675-.565-.76a5.419,5.419,0,0,1,1.511-.83l.3.9a4.627,4.627,0,0,0-1.243.691m2.2-.688-.3-.088.24-.855a.319.319,0,0,0-.2.1,3.23,3.23,0,0,0,.284-.987l.927.192c-.218,1.06-.435,1.634-.953,1.634M25.057,29.4a1.355,1.355,0,0,1-.218-.019L25,28.443l.073.006a1.773,1.773,0,0,0,.606-.151,6.042,6.042,0,0,1,.628-.218l.262.908c-.164.05-.334.107-.514.18a3.062,3.062,0,0,1-.994.227M23.8,29.052l-.934-.155.139-.628a1.214,1.214,0,0,1,.943-.675.862.862,0,0,1,.684.473l-.776.461a.153.153,0,0,0,.063.006c.06,0,.022.035-.063.158Zm3.615-.24-.126-.937c.271-.038.533-.057.789-.076s.511-.038.776-.079l.139.937c-.287.044-.565.063-.845.085-.237.019-.476.035-.732.069m2.583-.4-.312-.893a5.6,5.6,0,0,0,.9-.413l.429-.246.483.814-.356.2A6.926,6.926,0,0,1,30,28.411m2.331-1.287-.561-.76a5.42,5.42,0,0,0,1.05-1l.741.587a6.45,6.45,0,0,1-1.23,1.173m1.792-2.053-.845-.423A3.73,3.73,0,0,0,33.5,24.1a3.1,3.1,0,0,0,.136-.773l.946.047a3.961,3.961,0,0,1-.18,1.006,4.974,4.974,0,0,1-.278.694m.479-2.634-.943-.073a5.007,5.007,0,0,1,.271-1.281c.047-.142.095-.268.142-.385l.877.356q-.061.151-.123.331a4.156,4.156,0,0,0-.224,1.05m.754-2.117-.776-.543.205-.278a5.334,5.334,0,0,0,.6-.978l.858.4a6.353,6.353,0,0,1-.7,1.136Zm1.259-2.328-.9-.3a6.4,6.4,0,0,0,.309-1.438l.94.085a7.221,7.221,0,0,1-.35,1.65m-.6-2.59a3.751,3.751,0,0,0-.132-.675,3.376,3.376,0,0,0-.274-.64l.826-.464a4.287,4.287,0,0,1,.353.833,4.7,4.7,0,0,1,.17.849Zm-.9-1.99A4.74,4.74,0,0,0,34,12.529l.473-.82a5.753,5.753,0,0,1,1.35,1.063Z" transform="translate(22.259 25.227)" fill="#0085cb"/><path d="M18.4,12.88a6.254,6.254,0,0,0-.691-.2l-.237-.047-.435-.927.855-.407.24.511c.142.035.341.091.577.173Z" transform="translate(36.697 24.352)" fill="#0085cb"/><rect width="0.946" height="1.721" transform="translate(52.556 33.569) rotate(-25.296)" fill="#0085cb"/><path d="M16.75,11.108l-.334-.716.855-.4.334.71Z" transform="translate(35.365 21.527)" fill="#0085cb"/><path d="M14.053,34.277a42.885,42.885,0,0,0,47.363-.315l.713,1.066a44.157,44.157,0,0,1-48.779.325Z" transform="translate(28.761 73.167)" fill="#000001"/><path d="M50.889,49.465a17.762,17.762,0,0,0-35.524,0" transform="translate(33.102 68.301)" fill="#f7f7f7"/><path d="M52.216,50H50.639a16.974,16.974,0,1,0-33.947,0H15.115a18.551,18.551,0,1,1,37.1,0" transform="translate(32.563 67.762)" fill="#000001"/><path d="M18.18,33.545a8.881,8.881,0,1,0,8.883-8.879,8.881,8.881,0,0,0-8.883,8.879" transform="translate(39.166 53.138)" fill="#f7f7f7"/><path d="M27.6,43.753a9.67,9.67,0,1,1,9.668-9.671A9.683,9.683,0,0,1,27.6,43.753m0-17.762a8.092,8.092,0,1,0,8.091,8.091A8.1,8.1,0,0,0,27.6,25.991" transform="translate(38.628 52.598)" fill="#000001"/><path d="M58.683,53.689a17.762,17.762,0,1,0-35.524,0" transform="translate(49.893 77.401)" fill="#f7f7f7"/><path d="M60.011,54.228H58.433a16.974,16.974,0,1,0-33.947,0H22.909a18.551,18.551,0,0,1,37.1,0" transform="translate(49.354 76.862)" fill="#000001"/><path d="M25.975,37.767a8.881,8.881,0,1,0,8.879-8.88,8.883,8.883,0,0,0-8.879,8.88" transform="translate(55.959 62.236)" fill="#f7f7f7"/><path d="M35.393,47.976a9.67,9.67,0,1,1,9.668-9.671,9.68,9.68,0,0,1-9.668,9.671m0-17.762a8.092,8.092,0,1,0,8.091,8.091,8.1,8.1,0,0,0-8.091-8.091" transform="translate(55.421 61.695)" fill="#000001"/><path d="M43.209,53.689a17.762,17.762,0,1,0-35.524,0" transform="translate(16.556 77.401)" fill="#f7f7f7"/><path d="M44.536,54.228H42.959a16.974,16.974,0,1,0-33.947,0H7.435a18.551,18.551,0,1,1,37.1,0" transform="translate(16.018 76.862)" fill="#000001"/><path d="M10.5,37.767a8.881,8.881,0,1,0,8.88-8.88,8.883,8.883,0,0,0-8.88,8.88" transform="translate(22.623 62.236)" fill="#f7f7f7"/><path d="M19.919,47.976a9.67,9.67,0,1,1,9.671-9.671,9.68,9.68,0,0,1-9.671,9.671m0-17.762a8.092,8.092,0,1,0,8.094,8.091,8.1,8.1,0,0,0-8.094-8.091" transform="translate(22.084 61.695)" fill="#000001"/><path d="M0,36.214A17.743,17.743,0,1,0,17.743,18.471,17.744,17.744,0,0,0,0,36.214" transform="translate(0 39.794)" fill="#f7f7f7"/><path d="M11.492,32.128,1.59,22.6l12.633,3.558-.331,1.177L5.946,25.094l6.394,6.154Z" transform="translate(3.426 48.68)" fill="#0085cb"/><path d="M18.922,33.115,6.012,30.046,6.3,28.857l8.214,1.956L8.494,25.431l.817-.908Z" transform="translate(12.951 52.832)" fill="#0085cb"/><path d="M9.843,31.77a4.132,4.132,0,1,1,2.464-1.984A4.13,4.13,0,0,1,9.843,31.77M7.859,25.014a2.911,2.911,0,1,0,2.214.237,2.893,2.893,0,0,0-2.214-.237" transform="translate(9.796 50.995)" fill="#0085cb"/><path d="M25.949,37.93l-1.186-.293a12.548,12.548,0,0,0,.281-1.53l1.214.148a13.724,13.724,0,0,1-.309,1.675m.41-3.375-1.221,0A12.866,12.866,0,0,0,25.04,33l1.214-.145a13.886,13.886,0,0,1,.1,1.7m-.413-3.375-1.189.3q-.066-.274-.142-.539c-.095-.319-.2-.634-.319-.946l1.142-.432c.129.338.246.684.35,1.035.057.192.107.391.158.587m-2.29-2.605a12.929,12.929,0,0,0-.8-1.328l1-.7a13.47,13.47,0,0,1,.883,1.457Zm-1.766-2.549a12.466,12.466,0,0,0-1.1-1.1l.808-.918a14.478,14.478,0,0,1,1.208,1.2Zm-2.328-2.05c-.356-.243-.729-.47-1.107-.678-.076-.041-.148-.082-.224-.12l.561-1.085c.082.044.167.085.246.132.416.227.826.476,1.214.741Zm-2.754-1.432a12.243,12.243,0,0,0-1.486-.457l.287-1.189a13.865,13.865,0,0,1,1.628.5ZM3.723,25.016l-.817-.908a13.907,13.907,0,0,1,1.331-1.06l.7,1a12.876,12.876,0,0,0-1.218.965m10.069-3.2a12.725,12.725,0,0,0-1.552-.085l-.006-1.221a13.32,13.32,0,0,1,1.7.091ZM6.265,23.237l-.574-1.079a13.929,13.929,0,0,1,1.546-.707l.442,1.139a12.97,12.97,0,0,0-1.413.647m4.422-1.407a12.413,12.413,0,0,0-1.527.29l-.3-1.186a14.257,14.257,0,0,1,1.675-.319Z" transform="translate(6.261 44.176)" fill="#093147"/><rect width="4.857" height="1.222" transform="translate(19.726 75.298) rotate(-61.319)" fill="#0085cb"/><rect width="4.856" height="1.222" transform="matrix(0.48, -0.877, 0.877, 0.48, 13.973, 85.835)" fill="#0085cb"/><path d="M23.072,54.151a17.98,17.98,0,0,1-2.659.568L20.249,53.5a16.546,16.546,0,1,0-13.343-4.18l-.823.905a17.774,17.774,0,1,1,16.989,3.921" transform="translate(0.623 41.638)" fill="#000001"/><path d="M6.57,18.913a3.98,3.98,0,0,1,4.706,2.11l1.173-.344a5.179,5.179,0,0,0-9.87,2.9l1.17-.344a3.983,3.983,0,0,1,2.82-4.321" transform="translate(5.407 37.766)" fill="#000001"/><path d="M30.141,0c-11,0-18.977,7.981-18.977,18.977,0,11.573,17.709,31.553,18.459,32.4l.517.577.517-.58c.754-.845,18.459-20.841,18.459-32.4C49.117,7.981,41.137,0,30.141,0m0,49.861c-2.956-3.429-17.592-20.9-17.592-30.884,0-10.195,7.4-17.595,17.592-17.595s17.595,7.4,17.595,17.595c0,9.965-14.639,27.452-17.595,30.884" transform="translate(24.051 0.001)" fill="#000001"/><path d="M22.314,3.71a7.517,7.517,0,1,0,7.517,7.517A7.525,7.525,0,0,0,22.314,3.71m0,13.652a6.135,6.135,0,1,1,6.135-6.135,6.142,6.142,0,0,1-6.135,6.135" transform="translate(31.878 7.994)" fill="#0085cb"/><path d="M31,14.185a4.395,4.395,0,0,0,3.066,1.558" transform="translate(66.781 30.561)" fill="#fff"/><path d="M34.351,16.66a4.993,4.993,0,0,1-3.5-1.766l.937-.842a3.728,3.728,0,0,0,2.628,1.35Z" transform="translate(66.462 30.272)" fill="#000001"/><path d="M30.058,15.052a7.821,7.821,0,0,0,3.713,2.17" transform="translate(64.756 32.429)" fill="#fff"/><path d="M33.914,18.114a8.5,8.5,0,0,1-4.006-2.356l.943-.839A7.25,7.25,0,0,0,34.27,16.9Z" transform="translate(64.432 32.142)" fill="#000001"/><path d="M29.013,15.878a9.98,9.98,0,0,0,4.243,2.609" transform="translate(62.504 34.208)" fill="#fff"/><path d="M33.369,19.377a10.657,10.657,0,0,1-4.5-2.779l.931-.855a9.409,9.409,0,0,0,3.981,2.438Z" transform="translate(62.185 33.917)" fill="#000001"/><path d="M41.2,22.417s-4.29-4.075-13.772-1.915c0,0,8.372-12.52,16.081-.76,0,0-2.076-6.981-11.766-11.583,0,0,12.128-4.568,14.567,8.34,0,0,6.009-7.29,14.753,1.18,0,0-9.372-2.123-13.6,2.337,0,0,13-2.618,12.753,12.2,0,0-5.495-8.22-13.3-9.652,0,0,7.454,5.381,3.236,11.409,0,0-.9-7.126-5.858-8.378,0,0-5.448,10.968-10.706,14.8,0,0-5.769-2.7-5.709-6.908,0,0,7.962-1.953,13.324-11.069" transform="translate(59.081 15.89)" fill="#f7f7f7"/><path d="M34.612,41.557l-.338-.158c-.252-.117-6.138-2.921-6.072-7.488l.009-.486.47-.117c.079-.019,7.5-1.946,12.646-10.305-1.237-.861-5.375-3.148-12.8-1.451l-1.546.35.88-1.319c.167-.246,4.2-6.088,9.337-6.072a7.167,7.167,0,0,1,3.886,1.2,24.936,24.936,0,0,0-8.652-6.545l-1.341-.637L32.476,8c.23-.085,5.668-2.088,10.179.448,2.448,1.375,4.12,3.8,4.984,7.233A9.367,9.367,0,0,1,53.162,13.4q4.651-.227,9.293,4.262l1.615,1.561-2.189-.5c-.082-.016-7.037-1.539-11.387.908h.129a11.409,11.409,0,0,1,7.318,2.391c2.637,2.2,3.94,5.779,3.858,10.636l-.035,2.016-1.12-1.675c-.05-.073-4.29-6.318-10.441-8.687,2,2.214,4.407,6.179,1.419,10.45l-.937,1.337-.208-1.618c-.009-.063-.845-6.236-4.905-7.7-1.132,2.189-5.908,11.088-10.659,14.551Zm-5.129-7.17c.306,2.965,3.877,5.1,4.993,5.7C39.457,36.194,44.63,25.857,44.683,25.75l.227-.454.492.123c3.76.949,5.347,4.867,5.968,7.182,1.893-4.836-3.615-8.9-3.874-9.091l-1.763-1.278.565,1.889-2.359-3.6c-2.06-3.142-4.331-4.741-6.75-4.75h-.022c-3.113,0-5.836,2.587-7.242,4.217,8.529-1.41,12.494,2.236,12.665,2.4l.366.347-.256.432A24.666,24.666,0,0,1,29.483,34.387M45.652,21.952l2.328.426c5.9,1.085,10.447,5.8,12.507,8.327-.249-3.47-1.372-6.06-3.356-7.706-3.5-2.911-8.536-1.94-8.592-1.927l-1.953.391,1.369-1.445c3.167-3.337,8.851-3.24,11.993-2.877a10.011,10.011,0,0,0-6.7-2.482,8.33,8.33,0,0,0-5.5,2.675L46.9,18.363l-.252-1.312c-.688-3.643-2.24-6.167-4.609-7.5a11.146,11.146,0,0,0-7.6-.785C43.021,13.4,44.986,19.719,45.068,20Z" transform="translate(58.12 15.453)" fill="#000001"/><path d="M39.768,39.731a9.031,9.031,0,1,1,9.021-9.037,9.042,9.042,0,0,1-9.021,9.037m0-17.116a8.085,8.085,0,1,0,8.075,8.078,8.088,8.088,0,0,0-8.075-8.078" transform="translate(66.231 46.684)" fill="#0085cb"/><path d="M37.54,34.242A5.769,5.769,0,1,1,43.3,28.466a5.776,5.776,0,0,1-5.763,5.776m0-10.592a4.823,4.823,0,1,0,4.814,4.817,4.819,4.819,0,0,0-4.814-4.817" transform="translate(68.459 48.912)" fill="#0085cb"/><path d="M56.759,41.335H54.365v-.946h2.394a.957.957,0,0,0,.956-.956V25.538a.957.957,0,0,0-.956-.956h-3.4a.475.475,0,0,1-.341-.145L49.5,20.784H41.618l-3.6,3.659a.48.48,0,0,1-.338.139H30.026a.954.954,0,0,0-.953.956V39.433a.954.954,0,0,0,.953.956h6.381v.946H30.026a1.9,1.9,0,0,1-1.9-1.9V25.538a1.9,1.9,0,0,1,1.9-1.9h7.457l3.6-3.656a.48.48,0,0,1,.338-.139h8.283a.472.472,0,0,1,.341.142l3.508,3.653h3.2a1.907,1.907,0,0,1,1.905,1.9V39.433a1.9,1.9,0,0,1-1.905,1.9" transform="translate(60.589 42.746)" fill="#000001"/></g></g><rect width="137" height="137" transform="translate(889 1209)" fill="none"/></g></svg>