<svg xmlns="http://www.w3.org/2000/svg" xmlns:xlink="http://www.w3.org/1999/xlink" width="95" height="76" viewBox="0 0 95 76"><defs><style>.a,.e,.g{fill:none;}.b{fill:#0c101b;}.c{clip-path:url(#a);}.d{fill:#fff;}.e,.g{stroke:#2583c8;stroke-miterlimit:10;}.e{stroke-linecap:round;}.f{fill:#f7f7f7;}.g{stroke-dasharray:2 1;}</style><clipPath id="a"><rect class="a" width="60.912" height="64.092"/></clipPath></defs><g transform="translate(-300 -223)"><g transform="translate(312.106 231)"><rect class="b" width="1.231" height="8.558" transform="translate(21.35 55.534)"/><rect class="b" width="1.235" height="8.558" transform="translate(51.667 55.534)"/><g transform="translate(0 0)"><g class="c"><path class="b" d="M35.514,35.251a6.811,6.811,0,0,0-.663-.718V28.6c3.222-3.254,5.336-8.6,5.336-14.651v-.534l-.53-.077c-.084-.01-8.593-1.336-17.43-10.128l-.617-.614-.373.781a89.209,89.209,0,0,1-6.086,10.218l-.112.16v.192c0,6.051,2.11,11.4,5.336,14.651v6.211c-.2.133-.394.272-.589.429-10,1.5-15.962,6.1-15.962,12.3v9.988H5.055V47.537c0-5.458,5.413-9.545,14.5-11.01L15.8,43.6l11.809-4.467L39.42,43.6l-3.756-7.073c9.092,1.465,14.5,5.552,14.5,11.01v9.988H51.4V47.537c0-6.19-5.936-10.776-15.889-12.286M16.271,14.134a92.25,92.25,0,0,0,5.7-9.458c7.725,7.418,14.979,9.364,16.98,9.782-.157,7.536-3.714,13.817-8.481,15.648a9.591,9.591,0,0,1-1.144.349l-.136.024a8.16,8.16,0,0,1-3.146,0l-.143-.028a9.485,9.485,0,0,1-1.126-.342c-4.841-1.848-8.443-8.29-8.5-15.98m2.148,27.157,2.832-5.325,4.834,2.427Zm3.188-6.525V29.834a10.3,10.3,0,0,0,3.317,1.639c.244.077.492.133.743.185.16.035.314.08.478.1a7.993,7.993,0,0,0,2.936,0c.167-.024.331-.073.5-.108.241-.056.485-.108.722-.181a10.161,10.161,0,0,0,3.32-1.646v4.938l-6.005,3.02Zm15.2,6.525-7.665-2.9,4.834-2.427Z" transform="translate(9.512 6.452)"/><path class="b" d="M5.652,18.573V41.943H6.887V18.573c0-7.47,1.528-12.231,4.551-14.145a5,5,0,0,1,5.172-.167l.422.272.352-.356A12.155,12.155,0,0,1,27,1.307c5.106.5,10.605,4.991,10.605,13.671h.1c-.192,1.4-.174,6.588-.1,26.965l1.231,0c-.035-9.7-.066-24.029-.021-26.526l.021-.436C38.839,5.53,32.763.634,27.121.083A13.4,13.4,0,0,0,16.836,2.995a6.25,6.25,0,0,0-6.058.394C7.329,5.576,5.652,10.542,5.652,18.573" transform="translate(14.059 0.001)"/><path class="b" d="M11.366,16.044a1.011,1.011,0,1,0-1.011-1.011,1.015,1.015,0,0,0,1.011,1.011" transform="translate(25.758 34.877)"/><path class="b" d="M11.366,17.525a1.011,1.011,0,1,0-1.011-1.015,1.018,1.018,0,0,0,1.011,1.015" transform="translate(25.758 38.56)"/><path class="b" d="M11.366,19.006a1.011,1.011,0,1,0-1.011-1.011,1.015,1.015,0,0,0,1.011,1.011" transform="translate(25.758 42.244)"/><rect class="b" width="7.983" height="1.235" transform="translate(25.165 55.471)"/><line class="d" y1="12.042" x2="12.014" transform="translate(0.871 48.066)"/><line class="e" y1="12.042" x2="12.014" transform="translate(0.871 48.066)"/><path class="f" d="M16.977,6.839A14.428,14.428,0,1,0,31.4,21.267,14.429,14.429,0,0,0,16.977,6.839" transform="translate(6.341 17.012)"/><circle class="g" cx="14.428" cy="14.428" r="14.428" transform="translate(8.889 23.849)"/><path class="a" d="M13.512,8.755a9.177,9.177,0,0,0-9.175,9.179" transform="translate(10.788 21.778)"/><path class="e" d="M13.512,8.755a9.177,9.177,0,0,0-9.175,9.179" transform="translate(10.788 21.778)"/></g></g></g><rect class="a" width="95" height="76" transform="translate(300 223)"/></g></svg>